<svg xmlns="http://www.w3.org/2000/svg" width="55.493" height="50.36" viewBox="0 0 55.493 50.36">
  <g id="Group_977" data-name="Group 977" transform="translate(-2.269 -4.549)">
    <path id="Path_9846" data-name="Path 9846" d="M14.026,38.157h-8.8A2.487,2.487,0,0,1,2.77,35.649V8.142A2.476,2.476,0,0,1,5.224,5.6h8.8A2.476,2.476,0,0,1,16.48,8.1V35.6a2.487,2.487,0,0,1-2.454,2.553ZM5.224,7.25a.825.825,0,0,0-.8.847V35.6a.836.836,0,0,0,.8.858h8.8a.836.836,0,0,0,.8-.858V8.1a.825.825,0,0,0-.8-.847Z" transform="translate(0 0.055)" fill="#858b67" stroke="#858b67" stroke-width="1"/>
    <path id="Path_9847" data-name="Path 9847" d="M9.248,15.261a2.718,2.718,0,1,1,2.718-2.718A2.718,2.718,0,0,1,9.248,15.261Zm0-3.785a1.1,1.1,0,1,0,1.1,1.1A1.1,1.1,0,0,0,9.248,11.476Zm19.2,42.933A4.335,4.335,0,0,1,24.1,50.447a29.708,29.708,0,0,0-1.452-6.767,11.85,11.85,0,0,0-7.625-7.515.836.836,0,0,1-.561-.781V8.032a.825.825,0,0,1,.572-.836L17.9,6.26a24.767,24.767,0,0,1,7.7-1.21H46.371A4.786,4.786,0,0,1,51.223,9.4a4.676,4.676,0,0,1-1.265,3.554,4.643,4.643,0,0,1,2.08,7.6,4.643,4.643,0,0,1,2.135,7.79,1.036,1.036,0,0,1-.11.11,4.654,4.654,0,0,1-1.87,8.912H31.352a24.525,24.525,0,0,1,1.4,13.489,4.4,4.4,0,0,1-2.52,3.169,4.258,4.258,0,0,1-1.782.385ZM16.113,34.8A13.456,13.456,0,0,1,24.2,43.109a32.15,32.15,0,0,1,1.551,7.2,2.685,2.685,0,0,0,2.7,2.454,2.6,2.6,0,0,0,1.1-.242,2.707,2.707,0,0,0,1.573-1.969c.858-4.61.11-10.2-1.837-13.6A.825.825,0,0,1,30,35.715h22.16a3,3,0,1,0,0-6.008H43.015a.825.825,0,1,1,0-1.65h7.856a3,3,0,1,0,0-6H43.015a.825.825,0,0,1,0-1.65H48.6a3,3,0,1,0,0-6.008H40.9a.825.825,0,0,1,0-1.65h5.644a3,3,0,0,0,2.993-3.3,3.125,3.125,0,0,0-3.2-2.762H25.554A23.2,23.2,0,0,0,18.4,7.79l-2.289.748Z" transform="translate(0.377 0)" fill="#858b67" stroke="#858b67" stroke-width="1"/>
  </g>
</svg>
