<svg xmlns="http://www.w3.org/2000/svg" width="59.644" height="47.281" viewBox="0 0 59.644 47.281">
  <g id="Group_972" data-name="Group 972" transform="translate(0.25 -53.26)">
    <path id="Path_9824" data-name="Path 9824" d="M158.765,130.3H140.31a.867.867,0,0,0,0,1.734h18.455a.867.867,0,1,0,0-1.734Zm-22.489,0h-2.923a.867.867,0,0,0,0,1.734h2.923a.867.867,0,0,0,0-1.734Zm6.145,26.574h-9.068a.867.867,0,0,0,0,1.734h9.068a.867.867,0,1,0,0-1.734Zm3.638-8.858H133.353a.867.867,0,0,0,0,1.734h12.706a.867.867,0,1,0,0-1.734Zm6.185-8.858H133.353a.867.867,0,0,0,0,1.734h18.891a.867.867,0,1,0,0-1.734Z" transform="translate(-117.182 -67.915)" fill="#858b67" stroke="#858b67" stroke-width="0.5"/>
    <path id="Path_9825" data-name="Path 9825" d="M51.469,53.51H15.64a5.762,5.762,0,0,0-5.756,5.756V93.378H.867A.867.867,0,0,0,0,94.253a5.813,5.813,0,0,0,5.754,6.038H41.692a5.762,5.762,0,0,0,5.756-5.756V84.03a.867.867,0,0,0-1.734,0V94.536a4.026,4.026,0,0,1-4.022,4.022h-.109a4.117,4.117,0,0,1-4.02-4.321.867.867,0,0,0-.867-.858H11.619V59.266a4.026,4.026,0,0,1,4.022-4.022H47.356c-.025.026-.049.053-.074.08s-.061.064-.09.1-.061.07-.092.106-.059.068-.087.1-.058.073-.086.11-.056.071-.083.107-.054.075-.081.113-.053.074-.078.112-.05.077-.075.116-.05.077-.073.116-.046.08-.069.12-.046.079-.068.12-.042.082-.063.123-.042.082-.062.123-.038.084-.057.127-.038.084-.056.127-.035.087-.052.131-.034.086-.05.129-.031.09-.046.135-.03.086-.044.13-.027.093-.04.14-.025.087-.037.131-.023.1-.034.147-.021.086-.029.129-.019.1-.028.154-.016.085-.022.127-.014.11-.021.166c0,.04-.011.079-.015.12-.006.062-.01.125-.014.187,0,.034-.006.068-.008.1q-.007.147-.007.293V66.96a.867.867,0,0,0,1.734,0V60.424h8.918a.867.867,0,0,0,.867-.875A5.815,5.815,0,0,0,51.469,53.51Zm-15.58,41.6q.018.135.041.267c.005.03.011.059.017.088.011.058.022.117.034.174.007.035.016.068.024.1.012.052.024.1.037.155.009.036.019.072.029.107q.035.128.076.253.062.194.137.383c.014.034.027.069.041.1s.039.091.059.136.029.065.043.1c.022.047.045.094.068.141.014.029.028.058.043.087.028.055.058.108.087.162l.032.059q.062.109.128.214l.032.048c.034.054.069.107.105.159l.051.072c.031.044.062.087.094.13l.059.076c.031.04.062.08.094.118l.064.076q.08.094.164.185l.048.052H5.754a4.018,4.018,0,0,1-3.937-3.446Zm11.6-36.422c0-.006,0-.012,0-.018,0-.026.009-.053.013-.079s.013-.074.02-.111.012-.056.018-.083.015-.069.024-.1a4.229,4.229,0,0,1,.14-.449c.011-.029.022-.057.034-.086s.024-.06.037-.09.024-.053.036-.079.028-.062.043-.092.023-.045.035-.067.034-.067.052-.1l.022-.038a4.028,4.028,0,0,1,.264-.409l0,0c.031-.042.063-.083.1-.123l.015-.02c.032-.039.065-.078.1-.116l.018-.021q.051-.057.1-.112l.017-.018q.055-.056.112-.111l.013-.012q.06-.057.122-.111l0,0a4.02,4.02,0,0,1,1.905-.923h0q.089-.017.179-.029h.011q.086-.012.173-.02l.027,0c.053,0,.106-.009.16-.011l.093,0,.1,0a4.018,4.018,0,0,1,3.937,3.446H47.49Z" transform="translate(0 0)" fill="#858b67" stroke="#858b67" stroke-width="0.5"/>
    <path id="Path_9826" data-name="Path 9826" d="M297.077,185.146a.862.862,0,0,0-.043-.265s0-.008,0-.011l0-.009a.882.882,0,0,0-.048-.11l-.007-.013a.868.868,0,0,0-.057-.09l-.013-.018a.863.863,0,0,0-.074-.085l-.018-.017a.869.869,0,0,0-.079-.067l-.011-.009a.886.886,0,0,0-.1-.061l-.02-.01a.855.855,0,0,0-.108-.047.879.879,0,0,0-.141-.035.867.867,0,0,0-.12-.012c-7.254-.188-16.713,1.559-21.5,7.018-2.093,2.389-3.059,5.42-3.992,8.352q-.115.36-.23.719l-.009.031-1.465,5.2a.867.867,0,1,0,1.669.47l1.359-4.826a26.991,26.991,0,0,1,4.806-1.634c.937-.255,2-.544,3.285-.939,2.779-.855,8.111-4.431,10.565-7.087a59.248,59.248,0,0,1,6.038-5.771l.007-.006a.866.866,0,0,0,.086-.083l0-.005a.888.888,0,0,0,.211-.466v0c0-.027.006-.054.006-.081,0-.01,0-.02,0-.029Zm-21.035,7.3c2.018-2.3,5.111-4.04,9.193-5.161a34,34,0,0,1,3.451-.749,67.054,67.054,0,0,0-7.561,4.4,69.347,69.347,0,0,0-7.531,5.757A14.23,14.23,0,0,1,276.042,192.446Zm13.409-2.031c-2.388,2.584-7.546,5.912-9.8,6.606-1.258.387-2.306.672-3.231.923-.836.227-1.6.435-2.35.674.337-.322.731-.684,1.2-1.09a69.375,69.375,0,0,1,6.822-5.15,47.1,47.1,0,0,1,11.241-5.865C292.068,187.675,290.827,188.927,289.451,190.415Z" transform="translate(-237.934 -115.657)" fill="#858b67" stroke="#858b67" stroke-width="0.5"/>
  </g>
</svg>
