<svg xmlns="http://www.w3.org/2000/svg" width="46.781" height="46.781" viewBox="0 0 46.781 46.781">
  <g id="Group_1003" data-name="Group 1003" transform="translate(-10 -10)">
    <path id="Path_483" data-name="Path 483" d="M33.39,10A23.417,23.417,0,0,0,10,33.39a23.18,23.18,0,0,0,4.138,13.286l-3.985,7.99a1.463,1.463,0,0,0,1.971,1.956L20.04,52.6A23.17,23.17,0,0,0,33.39,56.781,23.391,23.391,0,1,0,33.39,10Zm0,43.857a20.285,20.285,0,0,1-12.334-4.135,1.462,1.462,0,0,0-1.545-.137l-4.765,2.424,2.4-4.817a1.462,1.462,0,0,0-.139-1.53,20.467,20.467,0,1,1,16.38,8.2Z" fill="#858b67"/>
    <path id="Path_484" data-name="Path 484" d="M51.346,38.92h-4.02V34.9a1.462,1.462,0,0,0-1.462-1.462H40.382A1.462,1.462,0,0,0,38.92,34.9v4.02H34.9a1.462,1.462,0,0,0-1.462,1.462v5.544a1.462,1.462,0,0,0,1.478,1.462l4-.045v4a1.462,1.462,0,0,0,1.462,1.462h5.482a1.462,1.462,0,0,0,1.462-1.462V47.388h4.02a1.462,1.462,0,0,0,1.462-1.462V40.382a1.462,1.462,0,0,0-1.462-1.462Zm-1.462,5.543h-4.02A1.462,1.462,0,0,0,44.4,45.925v3.959H41.844v-4.02A1.462,1.462,0,0,0,40.366,44.4l-4,.045v-2.6h4.02a1.462,1.462,0,0,0,1.462-1.462v-4.02H44.4v4.02a1.462,1.462,0,0,0,1.462,1.462h4.02Z" transform="translate(-9.732 -9.732)" fill="#858b67"/>
  </g>
</svg>
