<svg id="Group_970" data-name="Group 970" xmlns="http://www.w3.org/2000/svg" xmlns:xlink="http://www.w3.org/1999/xlink" width="56.584" height="58.025" viewBox="0 0 56.584 58.025">
  <defs>
    <clipPath id="clip-path">
      <rect id="Rectangle_1050" data-name="Rectangle 1050" width="56.584" height="58.025" fill="#858b67" stroke="#858b67" stroke-width="1"/>
    </clipPath>
  </defs>
  <g id="Group_969" data-name="Group 969" clip-path="url(#clip-path)">
    <path id="Path_9818" data-name="Path 9818" d="M136.518,457.045a.85.85,0,0,0-1.631.48c.8,2.7,1.54,4.59,1.572,4.669a.85.85,0,0,0,1.58-.626c-.007-.019-.749-1.9-1.521-4.523" transform="translate(-119.569 -404.707)" fill="#858b67" stroke="#858b67" stroke-width="1"/>
    <path id="Path_9819" data-name="Path 9819" d="M206.76,259.676a3.452,3.452,0,0,1-2.087-.606.85.85,0,1,0-.966,1.4,5.166,5.166,0,0,0,2.921.91q.1,0,.2,0a.85.85,0,1,0-.068-1.7" transform="translate(-180.295 -229.575)" fill="#858b67" stroke="#858b67" stroke-width="1"/>
    <path id="Path_9820" data-name="Path 9820" d="M262.9,230.551l-2.437-2.119a.85.85,0,0,0-1.116,1.283l2.437,2.119a.85.85,0,0,0,1.116-1.283" transform="translate(-229.7 -202.358)" fill="#858b67" stroke="#858b67" stroke-width="1"/>
    <path id="Path_9821" data-name="Path 9821" d="M171.442,210.276a.851.851,0,0,0-.968-.713l-3.192.486a.85.85,0,0,0,.127,1.69.86.86,0,0,0,.129-.01l3.192-.486a.85.85,0,0,0,.713-.968" transform="translate(-147.683 -185.805)" fill="#858b67" stroke="#858b67" stroke-width="1"/>
    <path id="Path_9822" data-name="Path 9822" d="M187.677,299.369a3.579,3.579,0,0,0-2.892.289.85.85,0,0,0,.922,1.428,2.254,2.254,0,0,1,2.715.788.85.85,0,0,0,1.543-.713,3.578,3.578,0,0,0-2.288-1.792" transform="translate(-163.498 -265.289)" fill="#858b67" stroke="#858b67" stroke-width="1"/>
    <path id="Path_9823" data-name="Path 9823" d="M56.584,15.584c.005-1.295-1.18-2.364-3.625-3.269a41.06,41.06,0,0,0-8.115-1.826,12.4,12.4,0,0,0-3.471-4.078.85.85,0,1,0-1.025,1.356c3.49,2.637,4.775,7.162,4.46,11.15-1.893.267-4.017.488-6.348.645a12.113,12.113,0,0,0-4.374-2.119c-2.884-.942-5.865-1.919-8.773-7l.772-4.24A12.66,12.66,0,0,1,37.1,5.979a.85.85,0,0,0,.645-1.573,14.554,14.554,0,0,0-12.332.234,6.432,6.432,0,0,0-2.064-1.03,8.457,8.457,0,0,0-3.469-.291c-.017-.009-.034-.019-.052-.027a43.473,43.473,0,0,0-8.31-3C8.9-.275,7.288-.017,6.6,1.079c-.485.772-.389,1.8.284,3.062a.85.85,0,0,0,1.5-.8c-.406-.76-.439-1.206-.344-1.357.259-.412,2.527-.812,9.3,2.066-.172.08-.344.164-.512.255A10.248,10.248,0,0,0,12.8,8.433C12,7.7,11.286,6.989,10.662,6.317A.85.85,0,1,0,9.417,7.475c.761.818,1.64,1.679,2.62,2.571q-.128.323-.247.667C5.6,11.837,2.463,13.4,2.455,15.362c-.007,1.782,2.377,3.191,7.277,4.3a3.837,3.837,0,0,0-1.07,1.755,5.38,5.38,0,0,0,3.348,6.56,14.418,14.418,0,0,0,.779,3.062,21.5,21.5,0,0,0,5.067,8.4l-.289,2.475-2.636.795a2.208,2.208,0,0,0-2.545-1.006L8.346,42.912a10.711,10.711,0,0,0-1.313.492l-.013.006a11.186,11.186,0,0,0-3.485,2.57l-.01.011a10.471,10.471,0,0,0-2.466,5.152L.013,57.026a.85.85,0,1,0,1.674.3l1.047-5.887a8.775,8.775,0,0,1,2.06-4.314A9.5,9.5,0,0,1,7.74,44.95a8.994,8.994,0,0,1,1.1-.411l4.041-1.217a.505.505,0,0,1,.65.448,36.66,36.66,0,0,0,.79,5.176.85.85,0,1,0,1.66-.365,36.866,36.866,0,0,1-.692-4.212l2.182-.658A5.29,5.29,0,0,0,18.6,46.576a7.855,7.855,0,0,0,6.481,2.733,7.855,7.855,0,0,0,6.481-2.733A5.294,5.294,0,0,0,32.7,43.681l2.187.664a46.161,46.161,0,0,1-.852,5.716l-1.049,3.783a21.838,21.838,0,0,1-1.254,2.936.85.85,0,1,0,1.506.788A23.584,23.584,0,0,0,34.6,54.376c.006-.017.011-.034.016-.051l1.063-3.832c0-.015.008-.031.011-.046a48.33,48.33,0,0,0,.947-6.676.505.505,0,0,1,.65-.448l4.04,1.217a8.719,8.719,0,0,1,6.1,6.9l1.046,5.884a.85.85,0,0,0,1.674-.3L49.1,51.146a10.409,10.409,0,0,0-7.287-8.234l-4.041-1.217a2.206,2.206,0,0,0-2.531.984l-2.653-.806L32.336,39.7a28.106,28.106,0,0,0,3.072-2.1,14.488,14.488,0,0,0,2.3-2.168,5.365,5.365,0,0,0,6.338-3.749,3.746,3.746,0,0,0,.031-2.033c.845.3,1.641.55,2.375.748a13.524,13.524,0,0,0,3.4.549,2.807,2.807,0,0,0,2.585-1.078c.637-1.014.288-2.419-1.066-4.295a34.037,34.037,0,0,0-4.949-5.186c4.675-.762,8.068-1.864,9.4-3.181a2.279,2.279,0,0,0,.762-1.621M41.275,26.058a8.406,8.406,0,0,0-1.407-4.9c1.654-.133,3.226-.3,4.694-.5-.077.374-.168.741-.274,1.095a6.8,6.8,0,0,1-3.013,4.3m-7.717-7c.659.215,1.285.42,1.872.664q-2.421.1-5.076.1l-.851,0q-.625,0-1.245-.013-.526-.323-1.051-.652c-2.082-1.307-4.1-2.655-5.988-4a10.928,10.928,0,0,0,3.141-2.99,14.87,14.87,0,0,0,9.2,6.9m-19.594-.517c-1.46-1.05-1.448-4.312-.8-6.548.074-.254.154-.5.238-.741,1.322,1.135,2.789,2.309,4.373,3.5a13.164,13.164,0,0,0-3.813,3.79M19.3,15.948l.073-.021c1.743,1.261,3.6,2.532,5.55,3.787-3.266-.133-6.365-.385-9.159-.744.906-1.187,2.3-2.706,3.537-3.022M17.641,5.8a6.788,6.788,0,0,1,5.225-.559A4.775,4.775,0,0,1,24.4,6l-.778,4.27a9.485,9.485,0,0,1-3.947,3.762c-2.056-1.514-3.938-3.011-5.566-4.43A8.746,8.746,0,0,1,17.641,5.8M4.155,15.369c0-.318,1.255-1.666,7.133-2.83a11.878,11.878,0,0,0-.122,4.022,6.551,6.551,0,0,0,.527,1.768c-.187-.036-.373-.072-.555-.109C5.4,17.061,4.154,15.769,4.155,15.369m6.14,6.518A2.411,2.411,0,0,1,13.1,20.3l.08.013a27.747,27.747,0,0,0-1.231,5.762,3.683,3.683,0,0,1-1.656-4.19M30.988,42.822a3.636,3.636,0,0,1-.752,2.689,6.247,6.247,0,0,1-5.156,2.1,6.247,6.247,0,0,1-5.156-2.1,3.636,3.636,0,0,1-.752-2.69l.248-2.129a8.96,8.96,0,0,0,2.484,1.183,8.832,8.832,0,0,0,2.467.335,14.8,14.8,0,0,0,6.353-1.647Zm3.373-6.564c-4.422,3.459-8.788,4.911-11.982,3.984s-6.1-4.491-7.988-9.779c-1.2-3.372-.9-5.081.487-9.9a112.49,112.49,0,0,0,12.886.931c1.617.987,3.235,1.928,4.827,2.805a.85.85,0,1,0,.821-1.489q-1.136-.626-2.288-1.295c2.323-.014,4.568-.089,6.7-.218.059.062.117.125.175.192a6.743,6.743,0,0,1,1.579,4.459q-1.318-.61-2.722-1.318a.85.85,0,1,0-.766,1.518q1.629.822,3.152,1.517c-1.429,4.882-2.046,6.374-4.879,8.59m8.051-5.053a3.683,3.683,0,0,1-3.639,2.653,27.528,27.528,0,0,0,2.034-5.493,2.45,2.45,0,0,1,1.6,2.84M51,28.962c-.167.266-1.241.564-4.107-.209a38.245,38.245,0,0,1-4.3-1.487,8.89,8.89,0,0,0,3.322-5.021l.007-.026C50.729,26.6,51.229,28.6,51,28.962M54.626,16c-.965.955-3.8,1.928-8.088,2.654a16.077,16.077,0,0,0-.878-6.321c7.527,1.181,9.226,2.724,9.224,3.248a.731.731,0,0,1-.257.419" transform="translate(0 0)" fill="#858b67" stroke="#858b67" stroke-width="1"/>
  </g>
</svg>
