<svg xmlns="http://www.w3.org/2000/svg" width="49.33" height="52.518" viewBox="0 0 49.33 52.518">
  <g id="Group_708" data-name="Group 708" transform="translate(-15.451 0.25)">
    <path id="Path_488" data-name="Path 488" d="M116.712,125.994a1.016,1.016,0,1,0,1.016,1.016A1.016,1.016,0,0,0,116.712,125.994Zm9.14,18.991h-3.047v-3.047a1.016,1.016,0,1,0-2.031,0v3.047h-3.047a1.016,1.016,0,1,0,0,2.031h3.047v3.047a1.016,1.016,0,1,0,2.031,0v-3.047h3.047a1.016,1.016,0,1,0,0-2.031Z" transform="translate(-89.839 -113.198)" fill="#858b67" stroke="#858b67" stroke-width="0.5"/>
    <path id="Path_489" data-name="Path 489" d="M63.423,32.7a8.12,8.12,0,0,0-11.1-2.974L48.2,32.109V23.29a5.114,5.114,0,0,0-1.016-3.047l-5.078-6.77V10.59a3.052,3.052,0,0,0,2.031-2.872V3.047A3.05,3.05,0,0,0,41.09,0H22.81a3.05,3.05,0,0,0-3.047,3.047V7.718a3.052,3.052,0,0,0,2.031,2.872v2.883l-5.078,6.771A5.114,5.114,0,0,0,15.7,23.29V42.959a5.084,5.084,0,0,0,5.078,5.078H37.1a8.116,8.116,0,0,0,11.036,2.872L60.449,43.8A8.131,8.131,0,0,0,63.423,32.7ZM21.794,3.047A1.017,1.017,0,0,1,22.81,2.031H41.09a1.017,1.017,0,0,1,1.016,1.016V7.718A1.017,1.017,0,0,1,41.09,8.734H22.81a1.017,1.017,0,0,1-1.016-1.016V3.047ZM18.342,21.462l5.281-7.041a1.016,1.016,0,0,0,.2-.609V10.765H40.075V12.8h-9.14a1.016,1.016,0,1,0,0,2.031h9.648l4.976,6.634a3.073,3.073,0,0,1,.588,1.49H17.754A3.072,3.072,0,0,1,18.342,21.462Zm2.437,24.543a3.05,3.05,0,0,1-3.047-3.047V41.933H36.184a8.138,8.138,0,0,0,.049,4.072H20.779Zm16.2-6.093H17.732V24.983H46.168v8.3l-6.157,3.555a8.064,8.064,0,0,0-3.031,3.075ZM47.121,49.15A6.093,6.093,0,1,1,41.027,38.6l5.513-3.183,6.093,10.554L47.121,49.15Zm12.313-7.109-5.041,2.911L48.3,34.4l5.041-2.91a6.093,6.093,0,1,1,6.093,10.554Z" fill="#858b67" stroke="#858b67" stroke-width="0.5"/>
  </g>
</svg>
