<svg xmlns="http://www.w3.org/2000/svg" width="49.26" height="47.308" viewBox="0 0 49.26 47.308">
  <g id="Group_1005" data-name="Group 1005" transform="translate(0.274 0.276)">
    <path id="Path_453" data-name="Path 453" d="M199.838,47.129a.952.952,0,0,0-1.158-.687,7.7,7.7,0,0,0-4.808,3.627.952.952,0,1,0,1.649.952,5.81,5.81,0,0,1,3.631-2.735A.952.952,0,0,0,199.838,47.129Zm2.076-.824-.044-.007a.958.958,0,1,0,.044.007Z" transform="translate(-175.302 -42.858)" fill="#858b67" stroke="#858b67" stroke-width="0.5"/>
    <path id="Path_454" data-name="Path 454" d="M43.878,38.115c-.7-.2-1.458-.378-2.262-.531a.958.958,0,0,0-.139-.025,43.909,43.909,0,0,0-7.9-.671c-1.571,0-3.1.073-4.56.211L34.9,26.912a11.1,11.1,0,0,0-19.219-11.1l-7.1,12.3,0,0,0,0-7.1,12.3a11.084,11.084,0,0,0,9.581,16.636,11.183,11.183,0,0,0,8.019-3.392,8.829,8.829,0,0,0,4.2,2.167,39.144,39.144,0,0,0,10.3,1.225,39.144,39.144,0,0,0,10.3-1.225c3.218-.919,4.85-2.193,4.85-3.785V41.9s0,0,0-.006C48.736,40.309,47.1,39.036,43.878,38.115Zm-10.3.676c1.5,0,2.958.069,4.34.2L25.83,44.326c-.717-.139-1.395-.3-2.021-.477-2.853-.815-3.477-1.685-3.477-1.952s.625-1.137,3.477-1.952a37.179,37.179,0,0,1,9.773-1.154ZM17.333,16.768A9.193,9.193,0,0,1,33.256,25.96l-6.6,11.433-.077.013-15.87-9.163,6.625-11.475Zm1.1,25.125s0,0,0,.005v9.6A9.262,9.262,0,0,1,6.5,53.924,9.222,9.222,0,0,1,3.131,41.366L9.756,29.891l14.015,8.092c-.164.043-.326.087-.485.132-3.22.92-4.854,2.191-4.858,3.777Zm28.4,10.149c0,.268-.623,1.141-3.469,1.954a37.224,37.224,0,0,1-9.781,1.152A37.225,37.225,0,0,1,23.8,54c-2.846-.813-3.469-1.686-3.469-1.954V44.5a13.069,13.069,0,0,0,2.955,1.183c.747.213,1.56.4,2.422.56a.944.944,0,0,0,.127.023,44.163,44.163,0,0,0,7.746.644,39.094,39.094,0,0,0,10.3-1.227A13.067,13.067,0,0,0,46.833,44.5Zm0-10.144v0c0,.269-.633,1.137-3.477,1.949A37.18,37.18,0,0,1,33.582,45c-1.434,0-2.833-.062-4.161-.181L41.483,39.5c.662.132,1.29.281,1.872.447,2.848.813,3.475,1.682,3.477,1.95v0Z" transform="translate(0 -10.27)" fill="#858b67" stroke="#858b67" stroke-width="0.5"/>
  </g>
</svg>
