<svg id="Group_914" data-name="Group 914" xmlns="http://www.w3.org/2000/svg" width="59.5" height="44.625" viewBox="0 0 59.5 44.625">
  <path id="Path_9805" data-name="Path 9805" d="M37.188,48.625H53.922A5.585,5.585,0,0,0,59.5,43.047V26.313a5.585,5.585,0,0,0-5.578-5.578H46.416L49.238,6.213A1.859,1.859,0,0,0,47.414,4H41.39a3.734,3.734,0,0,0-3.544,2.59L32.435,19.429a2.139,2.139,0,0,0-.08.223,20.491,20.491,0,0,0-.746,5.476V43.047A5.585,5.585,0,0,0,37.188,48.625Zm-31.609,0H22.313a5.585,5.585,0,0,0,5.578-5.578V26.313a5.585,5.585,0,0,0-5.578-5.578H14.806L17.629,6.213A1.854,1.854,0,0,0,15.8,4H9.78A3.728,3.728,0,0,0,6.238,6.59L.824,19.429c-.03.074-.056.149-.078.225A20.487,20.487,0,0,0,0,25.128V43.047A5.585,5.585,0,0,0,5.578,48.625Z" transform="translate(0 -4)" fill="#858b67"/>
</svg>
