<svg id="Group_968" data-name="Group 968" xmlns="http://www.w3.org/2000/svg" xmlns:xlink="http://www.w3.org/1999/xlink" width="62.798" height="58.026" viewBox="0 0 62.798 58.026">
  <defs>
    <clipPath id="clip-path">
      <rect id="Rectangle_1049" data-name="Rectangle 1049" width="62.798" height="58.026" fill="#858b67" stroke="#858b67" stroke-width="1"/>
    </clipPath>
  </defs>
  <g id="Group_968-2" data-name="Group 968" clip-path="url(#clip-path)">
    <path id="Path_9814" data-name="Path 9814" d="M62.778,145.825c-.406-4.12-1.689-7.071-3.815-8.771a7.7,7.7,0,0,0-3.454-1.547.917.917,0,0,0-.153-.2A21.893,21.893,0,0,0,49.61,131.2a4.7,4.7,0,0,0-3.736-6.765c-.181-7.488-1.738-12.479-4.85-15.613-2.389-2.406-5.713-3.626-9.879-3.626a16.859,16.859,0,0,0-6.474,1.142.92.92,0,1,0,.707,1.7,15.051,15.051,0,0,1,5.767-1c3.709,0,6.513,1.008,8.573,3.083,2.532,2.55,3.935,6.8,4.26,12.935q-.089-.123-.181-.247l-.014-.019q-.094-.127-.192-.253l-.019-.024q-.1-.125-.2-.249l-.021-.026q-.1-.123-.2-.245l-.022-.026q-.1-.122-.208-.242l-.02-.023q-.107-.121-.216-.239l-.016-.017q-.113-.121-.228-.238l-.007-.007c-.158-.161-.32-.315-.485-.462l-.007-.006q-.119-.106-.24-.2l-.018-.015q-.117-.1-.236-.185l-.026-.019q-.116-.087-.235-.167l-.03-.02q-.117-.079-.236-.15l-.031-.018c-.079-.047-.159-.091-.239-.133l-.028-.014c-.081-.041-.163-.08-.244-.115l-.023-.009c-.084-.036-.168-.068-.253-.1l-.012,0c-.088-.029-.176-.055-.264-.077a2.7,2.7,0,0,0-2.272.431,9.617,9.617,0,0,1-6.414,1.868,9.617,9.617,0,0,1-6.414-1.868,2.7,2.7,0,0,0-2.272-.431c-.085.021-.17.046-.255.074l-.019.006c-.081.027-.161.058-.242.092l-.03.012q-.117.05-.234.109l-.035.018q-.116.059-.23.127l-.034.02q-.116.069-.231.145l-.027.019q-.118.079-.235.166l-.012.009q-.12.089-.238.184l-.009.007c-.077.063-.154.128-.23.195l-.026.023q-.11.1-.218.2l-.033.031q-.106.1-.21.2l-.035.035q-.1.1-.205.213l-.031.034q-.1.11-.2.224l-.023.026q-.105.118-.208.239l-.006.007q-.1.121-.2.243l-.018.022q-.1.119-.19.239l-.028.035q-.091.116-.179.233l-.031.041q-.087.116-.171.231l-.029.041-.045.062c.212-4.953,1.047-9.881,3.877-12.853a.92.92,0,0,0-1.332-1.269c-3.514,3.69-4.3,9.72-4.428,15.491a4.7,4.7,0,0,0-3.751,6.773,21.859,21.859,0,0,0-6.091,4.463,7.55,7.55,0,0,0-2.746,1.382c-2.122,1.7-3.406,4.637-3.815,8.743a4.11,4.11,0,0,0,4.086,4.523H42.459a.92.92,0,1,0,0-1.84H27.04v-4.026a.4.4,0,0,1,.277-.379c3.2-1.017,19.436-6.124,24.924-6.8a7.211,7.211,0,0,1,5.574,1.222c1.723,1.378,2.778,3.906,3.133,7.514a2.218,2.218,0,0,1-.572,1.726,2.279,2.279,0,0,1-1.685.747H46.629a.92.92,0,1,0,0,1.84h12.06a4.1,4.1,0,0,0,4.089-4.493m-14.52-16.709a2.87,2.87,0,0,1-2.646,2.857,22.533,22.533,0,0,0,.341-3.911c0-.558-.022-1.12-.063-1.674,0-.032,0-.064,0-.1a2.872,2.872,0,0,1,2.366,2.823m-4.144-1.053a19.356,19.356,0,0,1-2.454,9.6.915.915,0,0,0-.087.211c-3.536.982-7.224,2.087-10.177,3-3.348-1.029-7.183-2.173-10.735-3.151-.009-.019-.018-.037-.028-.055a19.357,19.357,0,0,1-2.454-9.6c0-.462.015-.928.046-1.387l.008-.015.035-.066.066-.123.041-.075.067-.121.045-.079.068-.121.05-.085.07-.119.054-.091.069-.116.059-.1.07-.114.062-.1.071-.114.065-.1.073-.113.068-.1.073-.111.072-.107.073-.109.074-.108.075-.108.075-.107.076-.107.078-.107.076-.1.079-.107.078-.1.08-.1.078-.1.082-.1.079-.1.083-.1.079-.1.084-.1.079-.092.085-.1.08-.088.084-.092.081-.086.084-.088.081-.082.084-.084.08-.077.084-.079.081-.073.083-.074.08-.068.083-.069.08-.063.082-.063.08-.057.08-.056.08-.051.078-.05.081-.046.075-.042c.027-.014.054-.026.082-.039l.072-.034c.028-.012.056-.022.085-.033l.067-.026c.035-.012.07-.021.1-.031l.043-.013a.859.859,0,0,1,.768.14,11.473,11.473,0,0,0,7.483,2.21,11.474,11.474,0,0,0,7.483-2.21.859.859,0,0,1,.768-.14c1.54.373,3.637,3.433,4.67,5.387.03.46.047.926.047,1.388m-27.227,5.76a.923.923,0,0,0,.2-.022,20.453,20.453,0,0,0,1.181,3.275,65.843,65.843,0,0,0-7.485-1.633c-.395-.049-.779-.079-1.154-.093a20.049,20.049,0,0,1,4.2-2.66,4.686,4.686,0,0,0,3.058,1.133m-.484-7.532c0,.027,0,.055,0,.082-.041.558-.063,1.126-.063,1.69a22.521,22.521,0,0,0,.342,3.912,2.866,2.866,0,0,1-.279-5.684m-4.115,22.187a.063.063,0,0,1-.045-.108,7.957,7.957,0,0,1,5.009-2.307l7.948-.617v3.031H12.287Zm14.472-6.158a2.23,2.23,0,0,0-1.387,1.268l-8.262.641a9.8,9.8,0,0,0-6.168,2.841,1.9,1.9,0,0,0-.556,1.408H4.105a2.27,2.27,0,0,1-2.255-2.5c.358-3.594,1.412-6.114,3.132-7.488a7.215,7.215,0,0,1,5.572-1.22c3.6.447,11.809,2.794,17.716,4.574-.584.183-1.093.345-1.511.477m25.254-6.877a70.447,70.447,0,0,0-8.056,1.785,20.394,20.394,0,0,0,1.25-3.424.92.92,0,0,0,.184.019,4.684,4.684,0,0,0,3.063-1.138,20.04,20.04,0,0,1,4.245,2.692c-.226.017-.454.037-.686.066" transform="translate(0.001 -92.293)" fill="#858b67" stroke="#858b67" stroke-width="1"/>
    <path id="Path_9815" data-name="Path 9815" d="M168.048,47.992a.92.92,0,0,0,.809.482h2.483a.92.92,0,1,0,0-1.84h-.786l1.5-2.3a.92.92,0,0,0-.771-1.422h-2.349a.92.92,0,1,0,0,1.84h.652l-1.5,2.3a.92.92,0,0,0-.038.941" transform="translate(-147.339 -37.648)" fill="#858b67" stroke="#858b67" stroke-width="1"/>
    <path id="Path_9816" data-name="Path 9816" d="M106.15,33.358a.92.92,0,0,0,.809.482h3.848a.92.92,0,1,0,0-1.84h-2.151l2.832-4.346a.92.92,0,0,0-.771-1.422h-3.64a.92.92,0,0,0,0,1.84h1.943l-2.832,4.346a.92.92,0,0,0-.038.941" transform="translate(-93.033 -23.015)" fill="#858b67" stroke="#858b67" stroke-width="1"/>
    <path id="Path_9817" data-name="Path 9817" d="M26.752,10.826h5.994a.92.92,0,1,0,0-1.84h-4.3l4.928-7.564A.92.92,0,0,0,32.607,0h-5.67a.92.92,0,1,0,0,1.84h3.973L25.981,9.4a.92.92,0,0,0,.771,1.422" transform="translate(-22.664 -0.001)" fill="#858b67" stroke="#858b67" stroke-width="1"/>
  </g>
</svg>
