<svg id="undraw_scientist_ft0o" xmlns="http://www.w3.org/2000/svg" width="374.918" height="227.798" viewBox="0 0 374.918 227.798">
  <path id="Path_9980" data-name="Path 9980" d="M374.408,312.085H.51a.51.51,0,1,1,0-1.019h373.9a.51.51,0,1,1,0,1.019Z" transform="translate(0 -152.566)" fill="#3f3d56"/>
  <g id="Group_1014" data-name="Group 1014" transform="translate(38)">
    <path id="uuid-4d78f6fa-6618-4aff-a06a-080a1d9c45db-175" d="M207.547,114.532c-5.478-1.641-9.075-5.8-8.03-9.284s6.334-4.983,11.811-3.343a14.34,14.34,0,0,1,5.88,3.332l23.128,7.241-3.628,10.782-22.415-8.285a14.278,14.278,0,0,1-6.746-.448h0Z" transform="translate(-97.768 -49.654)" fill="#a0616a"/>
    <path id="Path_9981" data-name="Path 9981" d="M327.654,121.954l.28,19.041s-23.938-.316-32.315.341-60.579-18.445-60.579-18.445l8.672-12.3L301.3,124.5l26.353-2.548h0Z" transform="translate(-115.279 -54.242)" fill="#fff"/>
    <rect id="Rectangle_1089" data-name="Rectangle 1089" width="3.567" height="48.406" transform="translate(107.92 41.816)" fill="#858b67"/>
    <path id="Path_9982" data-name="Path 9982" d="M219.655,236.049H199.024l-.076-.082a17.144,17.144,0,0,1-2.782-19.546l6.278-12.275-2.492-43.973a2.936,2.936,0,0,1,2.935-3.1h3.857a2.931,2.931,0,0,1,2.94,2.823l1.676,43.464,8.693,13.574a17.158,17.158,0,0,1,.061,18.4h0l-.459.718h0v-.005Z" transform="translate(-95.293 -77.039)" fill="#3f3d56"/>
    <path id="Path_9983" data-name="Path 9983" d="M220.515,293.663h0a1.069,1.069,0,0,1-.9.494h-15.7a1.069,1.069,0,0,1-.795-.352,13.9,13.9,0,0,1-3.358-10.818,1.039,1.039,0,0,1,.774-.876,45.8,45.8,0,0,1,11.5-1.366,48.638,48.638,0,0,1,9.263.856,1.043,1.043,0,0,1,.805.724,13.881,13.881,0,0,1-1.58,11.337Z" transform="translate(-97.926 -137.695)" fill="#858b67"/>
    <path id="Path_9984" data-name="Path 9984" d="M366.2,76.632l3.057,20.891L344.8,100.071l1.529-27.006Z" transform="translate(-169.111 -35.836)" fill="#a0616a"/>
    <circle id="Ellipse_69" data-name="Ellipse 69" cx="16.494" cy="16.494" r="16.494" transform="translate(157.344 14.031)" fill="#a0616a"/>
    <path id="uuid-01223ad5-4ac1-4a04-9d1d-d35e7b8f8b6b-176" d="M226.1,203.044c-4.667-4.188-10.67-5.131-13.411-2.1s-1.182,8.876,3.485,13.065a15.375,15.375,0,0,0,6.512,3.572l20,17.492,8.249-9.737-20.59-16.208a15.281,15.281,0,0,0-4.244-6.079h0Z" transform="translate(-103.652 -97.684)" fill="#a0616a"/>
    <path id="Path_9985" data-name="Path 9985" d="M310.034,112.633,335,109.066l14.777,11.21,1.529,61.654,14.267,98.341L270.8,281.29s7.134-63.692,10.7-67.259,6.114-19.872,6.114-19.872l7.134-70.316Z" transform="translate(-132.818 -53.492)" fill="#fff"/>
    <path id="Path_9986" data-name="Path 9986" d="M285.158,137.534s-13.248-1.019-16.305,8.153-6.624,39.234-6.624,39.234l-8.153,1.019-7.134-7.643L239.3,196.64s27.006,29.553,37.2,16.305S285.158,137.534,285.158,137.534Z" transform="translate(-117.369 -67.438)" fill="#fff"/>
    <path id="Path_9987" data-name="Path 9987" d="M353.555,39.038s0-16.331,1.529-21.426-7.134-10.7-9.681-15.8-18.343,2.038-24.967,3.057-6.114,5.1-10.191,11.719,4.076,16.815,10.191,17.834,4.076,5.6,8.27,10.7,17.594,0,17.594,0l1.651,2.548s-3.567,14.267,3.057,26.5l17.324,4.586c-5.1-15.286.51-15.286,3.7-23.184S353.555,39.038,353.555,39.038Z" transform="translate(-151.625)" fill="#2f2e41"/>
  </g>
  <g id="Group_1015" data-name="Group 1015" transform="translate(13)">
    <path id="Path_9978" data-name="Path 9978" d="M570.411,268.269h-9.8l-.036-.036a8.155,8.155,0,0,1-1.32-9.289l2.981-5.834-1.182-20.9a1.4,1.4,0,0,1,.377-1.039,1.387,1.387,0,0,1,1.014-.438h1.834a1.394,1.394,0,0,1,1.4,1.34l.8,20.652,4.127,6.451a7.953,7.953,0,0,1,.841,1.743,8.09,8.09,0,0,1-.815,7h0l-.219.341h.005Z" transform="translate(-523.855 -113.167)" fill="#3f3d56"/>
    <path id="Path_9979" data-name="Path 9979" d="M570.815,295.646h0a.5.5,0,0,1-.428.234h-7.46a.5.5,0,0,1-.377-.168,6.6,6.6,0,0,1-1.595-5.141.5.5,0,0,1,.367-.418,21.736,21.736,0,0,1,5.462-.647,23.062,23.062,0,0,1,4.4.408.492.492,0,0,1,.382.346,6.581,6.581,0,0,1-.749,5.386Z" transform="translate(-525.105 -141.991)" fill="#858b67"/>
    <path id="Path_9988" data-name="Path 9988" d="M571.38,285.131H562.3V269.906h9.08a1.87,1.87,0,0,0,0-3.74h-63.3a1.87,1.87,0,0,0,0,3.74h7.745v15.225h-7.745a1.87,1.87,0,0,0,0,3.74h63.3a1.87,1.87,0,0,0,0-3.74Zm-51.82,0,4.27-11.373,34.725-3.852v15.225Z" transform="translate(-498.277 -130.544)" fill="#fff"/>
  </g>
</svg>
