<svg id="undraw_doctors_p6aq" xmlns="http://www.w3.org/2000/svg" width="315.113" height="271.564" viewBox="0 0 315.113 271.564">
  <path id="Path_9989" data-name="Path 9989" d="M0,590.049a.713.713,0,0,0,.715.715H314.4a.715.715,0,0,0,0-1.429H.715A.713.713,0,0,0,0,590.049Z" transform="translate(0 -321.235)" fill="#3f3c57"/>
  <g id="Group_1016" data-name="Group 1016" transform="translate(49.124 0)">
    <path id="Path_9990" data-name="Path 9990" d="M206.363,63.441l3.411,15.566-7.256,21.666-11.69-23.279,1.622-13.5Z" transform="translate(-153.141 -34.58)" fill="#fdb4b4"/>
    <rect id="Rectangle_1090" data-name="Rectangle 1090" width="20.184" height="24.387" transform="translate(37.084 43.62)" fill="#858b67"/>
    <circle id="Ellipse_70" data-name="Ellipse 70" cx="13.784" cy="13.784" r="13.784" transform="translate(35.183 9.133)" fill="#fdb4b4"/>
    <path id="Path_9991" data-name="Path 9991" d="M183.4,33.167S173.124,14.191,182.388,5.06s16.7-3.114,16.7-3.114l4.247-.172s.886,3.342,2.314,1.533,4.009,4.78,4.009,4.78c4.79,8.626-11.815,10.559-11.815,10.559s1.2,3.819-.02,4.619-4.475,3.809-4.475,3.809l-2.915,2.2L188.7,26.635s-1.809-1.428-2.723-.828.343,8.493.343,8.493L183.4,33.167h0Z" transform="translate(-146.43 0)" fill="#2e2e41"/>
    <path id="Path_9992" data-name="Path 9992" d="M146.584,379.779l-5.27,78.612,12.955.439L171.4,380.438Z" transform="translate(-126.151 -207.01)" fill="#2e2e41"/>
    <path id="Path_9993" data-name="Path 9993" d="M215.609,378.814l-5.27,78.611,12.955.439,17.128-78.392Z" transform="translate(-163.775 -206.484)" fill="#2e2e41"/>
    <path id="Path_9994" data-name="Path 9994" d="M141.364,236.969l6.9-85.619-10.577-44.584a13.249,13.249,0,0,1,9.709-14.608l10.349-2.746,4.581-4.581,10.419,23.009,6.507-22.991,5.075,3.691,15.052,6.641-.007.155-2.414,53.857,5.389,87.014-.239,0-60.741.759h0Z" transform="translate(-124.104 -46.24)" fill="#fff"/>
    <path id="Path_9995" data-name="Path 9995" d="M214.319,550.619l3.751,11.2s14.676,2,14.9,6.539-19.946,1.914-31.759,2.507-1.98-12.2-1.98-12.2l1.259-7.351,13.824-.695Z" transform="translate(-155.631 -300.132)" fill="#2e2e41"/>
    <path id="Path_9996" data-name="Path 9996" d="M146.976,548.847l3.751,11.2s14.676,2,14.9,6.539-19.946,1.913-31.759,2.507-1.98-12.2-1.98-12.2l1.259-7.351,13.824-.695h0Z" transform="translate(-118.924 -299.166)" fill="#2e2e41"/>
    <path id="uuid-2a99fb06-c611-4846-a9cf-67468c4aeefc-6870" d="M127.361,282.836a13.86,13.86,0,0,1,1.085-6.457l-2.8-22.967,10.967-1.013,1.659,23.406a13.859,13.859,0,0,1,1.827,6.285c.323,5.53-2.268,10.178-5.786,10.383s-6.631-4.11-6.953-9.638h0Z" transform="translate(-117.611 -137.579)" fill="#fdb4b4"/>
    <path id="uuid-a83e19fb-8297-4073-aac4-48fd1880d45d-6871" d="M280.441,290.369a13.86,13.86,0,0,1,1.156-6.445l-2.549-23,10.978-.893,1.4,23.423a13.859,13.859,0,0,1,1.759,6.3c.262,5.533-2.379,10.152-5.9,10.319s-6.586-4.182-6.848-9.713h0Z" transform="translate(-201.227 -141.741)" fill="#fdb4b4"/>
    <path id="Path_9997" data-name="Path 9997" d="M118.654,193.444l-.037-.2L112.9,162.577l6.754-49.94a8.474,8.474,0,1,1,16.794,2.275l-5.083,37.454,3.2,40.061-15.913,1.016Z" transform="translate(-110.664 -57.396)" fill="#fff"/>
    <path id="Path_9998" data-name="Path 9998" d="M260.555,192.838l-11.492-76.709a8.472,8.472,0,0,1,6.48-10.444,8.475,8.475,0,0,1,9.909,6.132l11.04,80.058-15.937.963h0Z" transform="translate(-184.728 -57.51)" fill="#fff"/>
    <circle id="Ellipse_71" data-name="Ellipse 71" cx="1.411" cy="1.411" r="1.411" transform="translate(47.564 65.791)" fill="#d6d7d8"/>
    <circle id="Ellipse_72" data-name="Ellipse 72" cx="1.411" cy="1.411" r="1.411" transform="translate(47.564 76.473)" fill="#d6d7d8"/>
    <circle id="Ellipse_73" data-name="Ellipse 73" cx="1.411" cy="1.411" r="1.411" transform="translate(47.564 87.155)" fill="#d6d7d8"/>
    <circle id="Ellipse_74" data-name="Ellipse 74" cx="1.411" cy="1.411" r="1.411" transform="translate(47.564 97.837)" fill="#d6d7d8"/>
    <circle id="Ellipse_75" data-name="Ellipse 75" cx="1.411" cy="1.411" r="1.411" transform="translate(47.564 108.519)" fill="#d6d7d8"/>
    <circle id="Ellipse_76" data-name="Ellipse 76" cx="1.411" cy="1.411" r="1.411" transform="translate(47.564 119.201)" fill="#d6d7d8"/>
    <circle id="Ellipse_77" data-name="Ellipse 77" cx="1.411" cy="1.411" r="1.411" transform="translate(47.564 129.883)" fill="#d6d7d8"/>
    <circle id="Ellipse_78" data-name="Ellipse 78" cx="1.411" cy="1.411" r="1.411" transform="translate(47.564 140.565)" fill="#d6d7d8"/>
    <path id="Path_9999" data-name="Path 9999" d="M156.96,268.878l-26.695-3.557-.514-.068-13.643-31.458-8.125-18.729h21.163Z" transform="translate(-107.983 -117.228)" fill="#858b67"/>
  </g>
  <g id="Group_1017" data-name="Group 1017" transform="translate(177.19 12.941)">
    <path id="Path_10000" data-name="Path 10000" d="M447.735,59.824l16.972-9.3V77.09H445.079Z" transform="translate(-419.794 -40.482)" fill="#2e2e41"/>
    <path id="Path_10001" data-name="Path 10001" d="M476.18,83.464l1.566,13.042-11.288,22.48-7.007-20.923,3.294-15.032Z" transform="translate(-427.628 -58.2)" fill="#fdb4b4"/>
    <rect id="Rectangle_1091" data-name="Rectangle 1091" width="19.491" height="23.551" transform="translate(31.21 39.084)" fill="#858b67"/>
    <path id="Path_10002" data-name="Path 10002" d="M507.585,388.514l5.09,75.914-12.511.424-16.54-75.7Z" transform="translate(-440.805 -224.713)" fill="#2e2e41"/>
    <path id="Path_10003" data-name="Path 10003" d="M440.929,387.582l5.089,75.914-12.511.424-16.54-75.7Z" transform="translate(-404.471 -224.205)" fill="#2e2e41"/>
    <path id="Path_10004" data-name="Path 10004" d="M469.5,249.345h-.3l-79.7-.26.072-.282,20.491-81.185-5.133-40.971a17.461,17.461,0,0,1,10.342-18.26l2.584-1.14,4.909-3.57,6.28,22.193,10.058-22.21,4.431,4.43,9.992,2.651a12.8,12.8,0,0,1,9.385,14.095l-.011.044-15.259,43.54L469.5,249.345Z" transform="translate(-389.499 -69.443)" fill="#fff"/>
    <path id="Path_10005" data-name="Path 10005" d="M433.5,553.492l13.349.671,1.216,7.1s9.5,12.354-1.912,11.78-30.889,1.966-30.669-2.421,14.393-6.314,14.393-6.314l3.623-10.815h0Z" transform="translate(-403.663 -314.639)" fill="#2e2e41"/>
    <path id="Path_10006" data-name="Path 10006" d="M498.535,551.781l13.349.671,1.216,7.1s9.5,12.354-1.912,11.78S480.3,573.3,480.519,568.91s14.393-6.314,14.393-6.314l3.623-10.815h0Z" transform="translate(-439.111 -313.707)" fill="#2e2e41"/>
    <path id="uuid-3bc2e7c3-8a4e-432b-b93d-ff096d796d3b-6872" d="M532.223,293.187h0c-.311,5.339-3.317,9.506-6.715,9.307s-5.9-4.686-5.587-10.027a13.383,13.383,0,0,1,1.765-6.069l1.6-22.6,10.591.978-2.7,22.179a13.384,13.384,0,0,1,1.048,6.235h0Z" transform="translate(-460.575 -156.731)" fill="#fdb4b4"/>
    <path id="uuid-a34cbb18-fa14-4c0b-8260-87fab6b8d9f9-6873" d="M412.579,288.5h0c-.424,5.331-3.519,9.433-6.911,9.162s-5.8-4.811-5.373-10.143a13.384,13.384,0,0,1,1.893-6.03l2.083-22.564,10.568,1.2-3.175,22.116a13.384,13.384,0,0,1,.915,6.256h0Z" transform="translate(-395.357 -154.078)" fill="#fdb4b4"/>
    <path id="Path_10007" data-name="Path 10007" d="M530.045,206.861l-15.382-.982.019-.231,3.072-38.463-4.908-36.168a8.191,8.191,0,0,1,7.463-9.267h0a8.194,8.194,0,0,1,8.77,7.067l6.522,48.227-.007.036-5.55,29.779Z" transform="translate(-456.691 -79.292)" fill="#fff"/>
    <path id="Path_10008" data-name="Path 10008" d="M414.526,204.564l-15.406-.931.034-.243,10.623-77.05a8.2,8.2,0,0,1,9.583-5.954,8.191,8.191,0,0,1,6.259,10.119l-11.093,74.059Z" transform="translate(-394.743 -78.468)" fill="#fff"/>
    <circle id="Ellipse_79" data-name="Ellipse 79" cx="1.362" cy="1.362" r="1.362" transform="translate(37.856 60.494)" fill="#d6d7d8"/>
    <circle id="Ellipse_80" data-name="Ellipse 80" cx="1.362" cy="1.362" r="1.362" transform="translate(37.856 70.809)" fill="#d6d7d8"/>
    <circle id="Ellipse_81" data-name="Ellipse 81" cx="1.362" cy="1.362" r="1.362" transform="translate(37.856 81.125)" fill="#d6d7d8"/>
    <circle id="Ellipse_82" data-name="Ellipse 82" cx="1.362" cy="1.362" r="1.362" transform="translate(37.856 91.44)" fill="#d6d7d8"/>
    <circle id="Ellipse_83" data-name="Ellipse 83" cx="1.362" cy="1.362" r="1.362" transform="translate(37.856 101.756)" fill="#d6d7d8"/>
    <circle id="Ellipse_84" data-name="Ellipse 84" cx="1.362" cy="1.362" r="1.362" transform="translate(37.856 112.071)" fill="#d6d7d8"/>
    <circle id="Ellipse_85" data-name="Ellipse 85" cx="1.362" cy="1.362" r="1.362" transform="translate(37.856 122.387)" fill="#d6d7d8"/>
    <circle id="Ellipse_86" data-name="Ellipse 86" cx="1.362" cy="1.362" r="1.362" transform="translate(37.856 132.702)" fill="#d6d7d8"/>
    <circle id="Ellipse_87" data-name="Ellipse 87" cx="12.743" cy="12.743" r="12.743" transform="translate(28.543 6.433)" fill="#fdb4b4"/>
    <path id="Path_10009" data-name="Path 10009" d="M459.89,32.748c.611,1.242-.358,2.793-1.639,3.315a7.688,7.688,0,0,1-4.1.093,7.588,7.588,0,0,0-4.095.108c-1.653.688-2.586,2.412-3.389,4.013l-4.5,8.964a10.8,10.8,0,0,0-1.5,4.619c-.026,3,2.352,5.394,3.632,8.105a11.583,11.583,0,0,1-9.078,16.443,4.932,4.932,0,0,1-2.82-.33,2.336,2.336,0,0,1-1.353-2.326c.31-1.853,3.141-2.286,3.661-4.091a3,3,0,0,0-.857-2.685c-.648-.736-1.467-1.31-2.085-2.071a5.4,5.4,0,0,1-.221-6.316c.763-1.088,1.944-1.9,2.437-3.13A6.566,6.566,0,0,0,434.1,54.1l-.614-4.323a12.114,12.114,0,0,1,0-5.054c1.081-3.738,5.3-5.494,7.777-8.5,1.15-1.4,1.924-3.073,3.1-4.444a9.615,9.615,0,0,1,15.547,1.356" transform="translate(-411.925 -28.448)" fill="#2e2e41"/>
    <path id="Path_10010" data-name="Path 10010" d="M487,38.418a1.371,1.371,0,0,0-.674,1.67,4.613,4.613,0,0,0,1.078,1.645,19.925,19.925,0,0,1,2.762,21.032,28.346,28.346,0,0,0-2.464,5.418c-.337,1.408-.319,2.952-1.1,4.17-.8,1.241-2.37,2.072-2.526,3.537a2.748,2.748,0,0,0,1.241,2.4,7.066,7.066,0,0,0,2.63,1.009,36.593,36.593,0,0,0,7.309.87,5.652,5.652,0,0,0,2.363-.322,2.141,2.141,0,0,0,1.371-1.813c.007-.63-.357-1.211-.4-1.839-.139-1.882,2.394-2.883,2.887-4.7a4.479,4.479,0,0,0-1-3.467,6.331,6.331,0,0,1-1.441-3.367c.016-1.188.761-2.233,1.051-3.385a9.067,9.067,0,0,0-.58-4.828l-1.245-4L496.935,48.2c-.77-2.475-1.579-5.022-3.246-7.007s-4.429-3.286-6.891-2.476" transform="translate(-441.042 -33.882)" fill="#2e2e41"/>
  </g>
  <g id="Group_1018" data-name="Group 1018" transform="translate(196.672 48.31)">
    <path id="Path_10011" data-name="Path 10011" d="M505.986,124.743l-.873-.255c1.82-6.239-2.1-17.883-2.144-18l.861-.294c.167.488,4.056,12.035,2.156,18.548Z" transform="translate(-470.831 -106.195)" fill="#3f3c57"/>
    <circle id="Ellipse_88" data-name="Ellipse 88" cx="3.8" cy="3.8" r="3.8" transform="translate(30.918 18.114)" fill="#3f3c57"/>
    <path id="Path_10012" data-name="Path 10012" d="M442.071,155.2h-2.3a.455.455,0,1,1,0-.91h2.3a2.374,2.374,0,0,0,2.374-2.379l-.028-14.2a5.592,5.592,0,1,0-11.183,0L433.262,151a2.382,2.382,0,0,0,2.356,2.369l1.582.012a.455.455,0,0,1,0,.91h0l-1.582-.012a3.294,3.294,0,0,1-3.259-3.277l-.028-13.289a6.5,6.5,0,1,1,13,0l.028,14.2a3.284,3.284,0,0,1-3.284,3.29Z" transform="translate(-432.324 -119.833)" fill="#3f3c57"/>
    <circle id="Ellipse_89" data-name="Ellipse 89" cx="1.612" cy="1.612" r="1.612" transform="translate(3.26 32.395)" fill="#3f3c57"/>
    <circle id="Ellipse_90" data-name="Ellipse 90" cx="1.612" cy="1.612" r="1.612" transform="translate(5.83 33.302)" fill="#3f3c57"/>
  </g>
  <path id="Path_10013" data-name="Path 10013" d="M240.509,109.89l-.873-.255c1.82-6.239-2.06-18.063-2.1-18.18l1.092.823c.167.488,3.781,11.1,1.881,17.612Z" transform="translate(-129.476 -49.85)" fill="#3f3c57"/>
  <path id="Path_10014" data-name="Path 10014" d="M175.947,112.542l.873-.255c-1.82-6.239,2.1-17.883,2.144-18l-.934.626c-.167.488-3.982,11.116-2.083,17.628Z" transform="translate(-95.617 -51.394)" fill="#3f3c57"/>
  <circle id="Ellipse_91" data-name="Ellipse 91" cx="3.8" cy="3.8" r="3.8" transform="translate(106.795 59.605)" fill="#3f3c57"/>
  <path id="Path_10015" data-name="Path 10015" d="M173.809,157.048h-2.3a.455.455,0,0,1,0-.91h2.3a2.374,2.374,0,0,0,2.374-2.379l-.028-14.2a5.592,5.592,0,1,0-11.183,0L165,152.85a2.382,2.382,0,0,0,2.356,2.369l1.582.012a.455.455,0,0,1,0,.91h0l-1.582-.012a3.294,3.294,0,0,1-3.259-3.277l-.028-13.289a6.5,6.5,0,1,1,13,0l.028,14.2a3.284,3.284,0,0,1-3.284,3.29Z" transform="translate(-89.427 -72.529)" fill="#3f3c57"/>
  <circle id="Ellipse_92" data-name="Ellipse 92" cx="1.612" cy="1.612" r="1.612" transform="translate(77.895 81.545)" fill="#3f3c57"/>
  <circle id="Ellipse_93" data-name="Ellipse 93" cx="1.612" cy="1.612" r="1.612" transform="translate(80.465 82.452)" fill="#3f3c57"/>
</svg>
