<svg xmlns="http://www.w3.org/2000/svg" xmlns:xlink="http://www.w3.org/1999/xlink" width="375.241" height="265.573" viewBox="0 0 375.241 265.573">
  <defs>
    <linearGradient id="linear-gradient" x1="0.5" y1="1" x2="0.5" gradientUnits="objectBoundingBox">
      <stop offset="0" stop-color="gray" stop-opacity="0.251"/>
      <stop offset="0.54" stop-color="gray" stop-opacity="0.122"/>
      <stop offset="1" stop-color="gray" stop-opacity="0.102"/>
    </linearGradient>
    <linearGradient id="linear-gradient-2" x1="0.5" y1="1" x2="0.5" y2="0" xlink:href="#linear-gradient"/>
  </defs>
  <g id="undraw_medicine_b-1-ol_1_" data-name="undraw_medicine_b-1-ol (1)" transform="translate(0.005 0.006)">
    <ellipse id="Ellipse_57" data-name="Ellipse 57" cx="33.06" cy="5.31" rx="33.06" ry="5.31" transform="translate(91.903 254.798)" fill="#858b67" opacity="0.1"/>
    <ellipse id="Ellipse_58" data-name="Ellipse 58" cx="41.253" cy="5.31" rx="41.253" ry="5.31" transform="translate(263.418 254.947)" fill="#858b67" opacity="0.1"/>
    <path id="Path_9849" data-name="Path 9849" d="M59.706,396.83H94.14v46.933H62.227c-.085.482-.166.967-.254,1.452H94.14v37.85c-.058-.017-.109-.037-.163-.058-.909-.36-1.812-.74-2.714-1.147l-.577-.261q-1.357-.641-2.714-1.357c-.316-.166-.631-.339-.943-.516A56.463,56.463,0,0,1,73.5,469.155c-.115-.112-.224-.231-.339-.339-.55-.6-1.089-1.2-1.612-1.819l-.577-.679c-.618-.757-1.215-1.534-1.795-2.321-.085-.115-.166-.231-.254-.339a50.515,50.515,0,0,1-5.836-10.552c-.047-.112-.088-.234-.132-.339q-.7-1.8-1.238-3.63c-.156-.512-.305-1.018-.434-1.551-.048-.156-.088-.309-.126-.461C59.227,439.6,59,431.79,59,424.03v-2.714c0-3.138.037-6.3.092-9.452,0-.818.034-1.632.051-2.453q.071-3.125.2-6.25c.02-.58.047-1.157.078-1.734a9.82,9.82,0,0,1,.051-1C59.556,399.222,59.624,398.024,59.706,396.83Z" transform="translate(-54.693 -282.089)" fill="#858b67" opacity="0.1"/>
    <path id="Path_9850" data-name="Path 9850" d="M125.788,196.322H106.9a143.183,143.183,0,0,1,10.046-13.829c2.806-3.447,5.768-6.806,8.842-10.043Z" transform="translate(-86.341 -133.837)" fill="#858b67" opacity="0.1"/>
    <path id="Path_9851" data-name="Path 9851" d="M95.725,247.09v49.352H61.4c0-.143.024-.288.034-.431.031-.39.061-.78.1-1.167.037-.455.078-.913.122-1.357s.092-.987.142-1.479.1-.991.156-1.483.109-.984.17-1.472.115-.984.18-1.473c.051-.407.105-.811.159-1.218.078-.573.159-1.15.248-1.72a1.585,1.585,0,0,1,.037-.254A117.357,117.357,0,0,1,65.271,272a91.633,91.633,0,0,1,4.258-12.553,94.237,94.237,0,0,1,6.406-12.336Z" transform="translate(-56.279 -183.153)" fill="#858b67" opacity="0.1"/>
    <path id="Path_9852" data-name="Path 9852" d="M186.8,173.368V220.3h73.546V173.368Zm0,48.385V262.06c.421.088.838.173,1.252.244.563.109,1.123.207,1.7.292.109.017.221.034.339.044.224.037.455.068.679.1.567.078,1.13.142,1.7.193.268.027.539.051.811.071l.655.051h0c.356.027.709.048,1.059.058.217,0,.434.02.658.027h2.419c.292,0,.584,0,.872-.027h.02a4.571,4.571,0,0,0,.607-.027,1.417,1.417,0,0,0,.17,0,3.508,3.508,0,0,0,.5-.024h.119l1.137-.088c.373-.034.75-.078,1.13-.119l.774-.092a67.668,67.668,0,0,0,9.313-1.981c6.86-1.914,13.571-4.591,20.428-6.552,8.865-2.528,18.661-3.769,27.227-.679v-31.8Zm73.546-100.638V58.629a94.549,94.549,0,0,0-23.9,2.8C217.827,66.11,201.118,76.258,186.8,89.219v31.893h3.691v1.449H186.8v49.359h73.546V122.564h-54.7v-1.449Zm94.467-21.107a30.463,30.463,0,0,1-13.33-3.875c-7.922-4.309-14.25-10.962-21.321-16.577a97.889,97.889,0,0,0-51.6-20.5v62.062H373.552l.261-.275Zm9.564-1.7,10.141,11.128V95.394a40.237,40.237,0,0,0-10.128,2.9Zm10.141,173.757V221.753H352.91c-.058-.214-.115-.431-.183-.648.064.217.119.434.18.648H268.574v36.388c.8.594,1.591,1.218,2.375,1.852h0c.845.679,1.679,1.394,2.517,2.1l.845.7c.4.339.811.679,1.221,1q1.221.991,2.467,1.954c.411.339.831.645,1.249.964a170.056,170.056,0,0,0,20.91,13.677q2.453,1.357,4.95,2.65c1.109.567,2.226,1.13,3.345,1.676q2.524,1.232,5.089,2.375h0a186.889,186.889,0,0,0,49.535,14.43q5.7.841,11.437,1.323v-30.77h.339ZM268.574,122.564v49.356H374.532V122.564Zm0,50.8V220.3H374.532V173.368ZM382.756,95.333V111L395.7,96.8q-6.433-1.038-12.944-1.483Zm0,78.052V220.3H485.814V173.368ZM485.437,275.794l.363-54.041H382.756v81.621a184.828,184.828,0,0,0,19.916-.237h.115q4.75-.3,9.456-.868h.071A174.134,174.134,0,0,0,460.9,289.3M505.686,181.1c-.387-.913-.79-1.819-1.2-2.714-.767-1.7-1.578-3.345-2.412-4.994h-8.041V220.3h20.33c-.01-13.286-3.372-26.858-8.665-39.225ZM494.031,221.77v46.482a66.588,66.588,0,0,0,14.05-18.949,65.142,65.142,0,0,0,6.263-27.54Zm0-62.062v12.214h7.288a132.316,132.316,0,0,0-7.278-12.231Zm-69.892-55.167c-.536-.2-1.072-.411-1.612-.611A147.116,147.116,0,0,0,405.119,98.7l-19.807,21.738h0l-.38.4.254.278h70.5a150.783,150.783,0,0,0-31.533-16.594Zm33.609,18.04H384.2l-1.445,1.323v48.015H485.827V148.661a146.842,146.842,0,0,0-28.069-26.1Z" transform="translate(-139.132 -58.63)" fill="#858b67" opacity="0.1"/>
    <path id="Path_9853" data-name="Path 9853" d="M95.725,320.46v24.459H61.4c0-.143.024-.288.034-.431.031-.39.061-.78.1-1.167.037-.455.078-.913.122-1.357s.092-.987.142-1.479.1-.991.156-1.483.109-.984.17-1.473.115-.984.18-1.472c.051-.407.105-.811.159-1.218.078-.573.159-1.15.248-1.72a1.586,1.586,0,0,1,.037-.254,117.357,117.357,0,0,1,2.528-12.391Z" transform="translate(-56.279 -231.63)" fill="#858b67" opacity="0.1"/>
    <path id="Path_9854" data-name="Path 9854" d="M59.706,396.83H94.14v46.933H62.227c-.085.482-.166.967-.254,1.452H94.14v37.85c-.058-.017-.109-.037-.163-.058-.909-.36-1.812-.74-2.714-1.147l-.577-.261q-1.357-.641-2.714-1.357c-.316-.166-.631-.339-.943-.516A56.463,56.463,0,0,1,73.5,469.155c-.115-.112-.224-.231-.339-.339-.55-.6-1.089-1.2-1.612-1.819l-.577-.679c-.618-.757-1.215-1.534-1.795-2.321-.085-.115-.166-.231-.254-.339a50.515,50.515,0,0,1-5.836-10.552c-.047-.112-.088-.234-.132-.339q-.7-1.8-1.238-3.63c-.156-.512-.305-1.018-.434-1.551-.048-.156-.088-.309-.126-.461C59.227,439.6,59,431.79,59,424.03v-2.714c0-3.138.037-6.3.092-9.452,0-.818.034-1.632.051-2.453q.071-3.125.2-6.25c.02-.58.047-1.157.078-1.734a9.82,9.82,0,0,1,.051-1C59.556,399.222,59.624,398.024,59.706,396.83Z" transform="translate(-54.693 -282.089)" fill="#858b67" opacity="0.1"/>
    <path id="Path_9855" data-name="Path 9855" d="M165.451,181.4v42.288H139.56V181.4h3.691V167.08H158.4V181.4Z" transform="translate(-91.892 -110.397)" fill="#858b67" opacity="0.1"/>
    <rect id="Rectangle_1062" data-name="Rectangle 1062" width="25.887" height="46.933" transform="translate(47.671 114.738)" fill="#858b67" opacity="0.1"/>
    <path id="Path_9856" data-name="Path 9856" d="M186.8,539.44h25.891v39.018a67.551,67.551,0,0,1-9.313,1.978l-.774.095c-.38.044-.757.081-1.13.119s-.76.065-1.137.088h-.119c-.163,0-.339.02-.5.024h-.173c-.2,0-.407.02-.611.027h0c-.288.017-.577.02-.872.024h-2.4l-.655-.024c-.339,0-.706-.037-1.059-.061h0l-.651-.048-.811-.075c-.57-.051-1.137-.115-1.7-.193l-.679-.095-.339-.048c-.567-.088-1.126-.183-1.7-.292-.417-.071-.831-.159-1.252-.244Z" transform="translate(-139.132 -376.313)" fill="#858b67" opacity="0.1"/>
    <rect id="Rectangle_1063" data-name="Rectangle 1063" width="21.348" height="47.279" transform="translate(214.052 66.007)" fill="#858b67" opacity="0.1"/>
    <path id="Path_9857" data-name="Path 9857" d="M486.542,338.19v46.936H380.58V364.881h56.44v11.943H465.19V338.19Z" transform="translate(-251.138 -223.452)" fill="#858b67" opacity="0.1"/>
    <path id="Path_9858" data-name="Path 9858" d="M534.117,588.5h-.339v30.79q-5.734-.485-11.434-1.32a186.9,186.9,0,0,1-49.556-14.46q-6.83-3.074-13.381-6.711a170.756,170.756,0,0,1-20.913-13.676q-2.5-1.914-4.93-3.915c-1.123-.926-2.239-1.876-3.369-2.8-.784-.635-1.574-1.259-2.375-1.856V538.178h84.329c-.058-.217-.115-.434-.177-.648.065.214.126.431.183.648h21.623v50.3C533.893,588.484,534.006,588.494,534.117,588.5Z" transform="translate(-298.378 -375.051)" fill="#858b67" opacity="0.1"/>
    <path id="Path_9859" data-name="Path 9859" d="M877.131,209.318H863.22V205h6.236V192.12q.811.3,1.615.607V205h6.06Z" transform="translate(-586.054 -146.833)" fill="#858b67" opacity="0.1"/>
    <path id="Path_9860" data-name="Path 9860" d="M845.327,296.442H777.036l.024.017-.031-.017H764.36V249.163h3.59v34.946h16.4v-20.7H797.9V247.09h13.911v16.336h13.551v20.7h19.96Z" transform="translate(-520.736 -183.153)" fill="#858b67" opacity="0.1"/>
    <path id="Path_9861" data-name="Path 9861" d="M764.36,396.82v46.936h80.967V396.82ZM867.305,499.005l.112-37.151H845.327V445.229H764.36v81.6a184.789,184.789,0,0,0,19.916-.237h.115q4.75-.3,9.456-.869h.071A174.137,174.137,0,0,0,842.5,512.756" transform="translate(-520.736 -282.082)" fill="#858b67" opacity="0.1"/>
    <path id="Path_9862" data-name="Path 9862" d="M1093.8,539.44h18.888a65.348,65.348,0,0,1-6.267,27.536,66.608,66.608,0,0,1-14.046,18.949V556.068h1.425Z" transform="translate(-737.458 -376.313)" fill="#858b67" opacity="0.1"/>
    <path id="Path_9863" data-name="Path 9863" d="M1115.468,458.775h-18.9V419.55H1106.8C1112.089,431.917,1115.451,445.488,1115.468,458.775Z" transform="translate(-740.233 -297.1)" fill="#858b67" opacity="0.1"/>
    <rect id="Rectangle_1064" data-name="Rectangle 1064" width="11.437" height="14.823" transform="translate(223.966 79.151)" fill="#858b67" opacity="0.1"/>
    <rect id="Rectangle_1065" data-name="Rectangle 1065" width="11.437" height="3.413" transform="translate(223.966 109.876)" fill="#858b67" opacity="0.1"/>
    <rect id="Rectangle_1066" data-name="Rectangle 1066" width="11.437" height="9.958" transform="translate(223.966 114.738)" fill="#858b67" opacity="0.1"/>
    <rect id="Rectangle_1067" data-name="Rectangle 1067" width="11.437" height="14.823" transform="translate(223.966 140.602)" fill="#858b67" opacity="0.1"/>
    <rect id="Rectangle_1068" data-name="Rectangle 1068" width="11.437" height="14.823" transform="translate(223.966 171.327)" fill="#858b67" opacity="0.1"/>
    <path id="Path_9864" data-name="Path 9864" d="M717.854,665.546a1.877,1.877,0,0,1,.339.02h-.339v3.444H706.42V654.17h11.434Z" transform="translate(-482.454 -452.118)" fill="#858b67" opacity="0.1"/>
    <path id="Path_9865" data-name="Path 9865" d="M717.854,744.71v11.451q-5.734-.485-11.434-1.32V744.71Z" transform="translate(-482.454 -511.939)" fill="#858b67" opacity="0.1"/>
    <rect id="Rectangle_1069" data-name="Rectangle 1069" width="49.016" height="1.089" transform="translate(129.442 160.585)" fill="#858b67" opacity="0.1"/>
    <rect id="Rectangle_1070" data-name="Rectangle 1070" width="49.016" height="4.173" transform="translate(129.442 163.123)" fill="#858b67" opacity="0.1"/>
    <rect id="Rectangle_1071" data-name="Rectangle 1071" width="49.016" height="6.711" transform="translate(129.442 180.976)" fill="#858b67" opacity="0.1"/>
    <path id="Path_9866" data-name="Path 9866" d="M481.451,652.15v6.711H443.112q-2.5-1.907-4.933-3.915c-1.123-.926-2.236-1.876-3.369-2.8Z" transform="translate(-302.997 -450.783)" fill="#858b67" opacity="0.1"/>
    <path id="Path_9867" data-name="Path 9867" d="M538.346,712.22v6.7H534.3q-6.823-3.077-13.378-6.714Z" transform="translate(-359.891 -490.465)" fill="#858b67" opacity="0.1"/>
    <rect id="Rectangle_1072" data-name="Rectangle 1072" width="9.649" height="9.649" transform="translate(263.543 119.288)" fill="#858b67" opacity="0.1"/>
    <rect id="Rectangle_1073" data-name="Rectangle 1073" width="9.649" height="9.649" transform="translate(54.619 74.329)" fill="#858b67" opacity="0.1"/>
    <rect id="Rectangle_1074" data-name="Rectangle 1074" width="9.649" height="9.649" transform="translate(54.619 96.742)" fill="#858b67" opacity="0.1"/>
    <rect id="Rectangle_1075" data-name="Rectangle 1075" width="9.649" height="9.649" transform="translate(54.619 119.155)" fill="#858b67" opacity="0.1"/>
    <rect id="Rectangle_1076" data-name="Rectangle 1076" width="9.649" height="9.649" transform="translate(54.619 141.565)" fill="#858b67" opacity="0.1"/>
    <rect id="Rectangle_1077" data-name="Rectangle 1077" width="9.649" height="9.649" transform="translate(54.619 163.978)" fill="#858b67" opacity="0.1"/>
    <rect id="Rectangle_1078" data-name="Rectangle 1078" width="9.649" height="9.649" transform="translate(54.619 186.391)" fill="#858b67" opacity="0.1"/>
    <rect id="Rectangle_1079" data-name="Rectangle 1079" width="9.649" height="9.649" transform="translate(300.379 119.288)" fill="#858b67" opacity="0.1"/>
    <rect id="Rectangle_1080" data-name="Rectangle 1080" width="9.649" height="9.649" transform="translate(263.543 143.089)" fill="#858b67" opacity="0.1"/>
    <rect id="Rectangle_1081" data-name="Rectangle 1081" width="9.649" height="9.649" transform="translate(300.379 143.089)" fill="#858b67" opacity="0.1"/>
    <rect id="Rectangle_1082" data-name="Rectangle 1082" width="9.649" height="9.649" transform="translate(263.543 166.886)" fill="#858b67" opacity="0.1"/>
    <rect id="Rectangle_1083" data-name="Rectangle 1083" width="9.649" height="9.649" transform="translate(300.379 166.886)" fill="#858b67" opacity="0.1"/>
    <rect id="Rectangle_1084" data-name="Rectangle 1084" width="9.649" height="9.649" transform="translate(263.543 190.687)" fill="#858b67" opacity="0.1"/>
    <rect id="Rectangle_1085" data-name="Rectangle 1085" width="9.649" height="9.649" transform="translate(300.379 190.687)" fill="#858b67" opacity="0.1"/>
    <rect id="Rectangle_1086" data-name="Rectangle 1086" width="9.649" height="9.649" transform="translate(263.543 214.487)" fill="#858b67" opacity="0.1"/>
    <rect id="Rectangle_1087" data-name="Rectangle 1087" width="9.649" height="9.649" transform="translate(300.379 214.487)" fill="#858b67" opacity="0.1"/>
    <path id="Path_9868" data-name="Path 9868" d="M775.83,708.552V702.33h9.646v5.337Z" transform="translate(-512.287 -464.045)" fill="#858b67" opacity="0.1"/>
    <path id="Path_9869" data-name="Path 9869" d="M65.24,357v5.52H98.262V357Zm3.291,5.174H65.837v-4.835h2.714Zm3.288,0H69.1v-4.835h2.714Zm3.281,0H72.385v-4.835H75.1Zm3.288,0H75.676v-4.835h2.714Zm3.284,0H78.957v-4.835h2.714Zm3.288,0H82.245v-4.835h2.714Zm3.288,0H85.533v-4.835h2.714Zm3.284,0H88.817v-4.835h2.714Zm3.284,0H92.1v-4.835h2.714Zm3.284,0H95.385v-4.835H98.1Z" transform="translate(-58.816 -255.772)" fill="#858b67" opacity="0.1"/>
    <path id="Path_9870" data-name="Path 9870" d="M65.24,404.34v5.52H98.262v-5.52Zm3.291,5.171H65.837v-4.821h2.714Zm3.288,0H69.1v-4.821h2.714Zm3.281,0H72.385v-4.821H75.1Zm3.288,0H75.676v-4.821h2.714Zm3.284,0H78.957v-4.821h2.714Zm3.288,0H82.245v-4.821h2.714Zm3.288,0H85.533v-4.821h2.714Zm3.284,0H88.817v-4.821h2.714Zm3.284,0H92.1v-4.821h2.714Zm3.284,0H95.385v-4.821H98.1Z" transform="translate(-58.816 -287.051)" fill="#858b67" opacity="0.1"/>
    <path id="Path_9871" data-name="Path 9871" d="M65.24,451.7v5.53H98.262V451.7Zm3.291,5.171H65.837v-4.825h2.714Zm3.288,0H69.1v-4.825h2.714Zm3.281,0H72.385v-4.825H75.1Zm3.288,0H75.676v-4.825h2.714Zm3.284,0H78.957v-4.825h2.714Zm3.288,0H82.245v-4.825h2.714Zm3.288,0H85.533v-4.825h2.714Zm3.284,0H88.817v-4.825h2.714Zm3.284,0H92.1v-4.825h2.714Zm3.284,0H95.385v-4.825H98.1Z" transform="translate(-58.816 -318.342)" fill="#858b67" opacity="0.1"/>
    <path id="Path_9872" data-name="Path 9872" d="M65.24,499.06v5.513H98.262V499.06Zm3.291,5.171H65.837V499.4h2.714Zm3.288,0H69.1V499.4h2.714Zm3.281,0H72.385V499.4H75.1Zm3.288,0H75.676V499.4h2.714Zm3.284,0H78.957V499.4h2.714Zm3.288,0H82.245V499.4h2.714Zm3.288,0H85.533V499.4h2.714Zm3.284,0H88.817V499.4h2.714Zm3.284,0H92.1V499.4h2.714Zm3.284,0H95.385V499.4H98.1Z" transform="translate(-58.816 -349.634)" fill="#858b67" opacity="0.1"/>
    <path id="Path_9873" data-name="Path 9873" d="M65.66,546.41c.132.519.282,1.038.438,1.551v-1.2h2.714v4.825H67.36c.044.112.088.234.132.339H98.54v-5.51Zm6.446,5.171H69.392v-4.825h2.714Zm3.281,0H72.673v-4.825h2.714Zm3.288,0H75.954v-4.825h2.714Zm3.284,0H79.245v-4.825h2.714Zm3.288,0H82.533v-4.825h2.714Zm3.288,0H85.82v-4.825h2.714Zm3.284,0H89.1v-4.825h2.714Zm3.284,0H92.389v-4.825H95.1Zm3.284,0H95.673v-4.825h2.714Z" transform="translate(-59.093 -380.918)" fill="#858b67" opacity="0.1"/>
    <path id="Path_9874" data-name="Path 9874" d="M88.26,593.77c.085.109.166.231.254.339h1.795v2.317c.193.231.383.461.58.679V594.1H93.6v4.842H92.5c.109.112.214.231.339.339h20.639V593.77Zm8.621,5.167H94.167v-4.821h2.714Zm3.288,0H97.455v-4.821h2.714Zm3.288,0h-2.714v-4.821h2.714Zm3.284,0h-2.714v-4.821h2.714Zm3.284,0h-2.714v-4.821h2.714Zm3.284,0H110.6v-4.821h2.714Z" transform="translate(-74.025 -412.21)" fill="#858b67" opacity="0.1"/>
    <path id="Path_9875" data-name="Path 9875" d="M141.65,641.12c.309.176.624.339.943.516v-.17h2.714v1.527l.577.268v-1.795H148.6V644.4a.844.844,0,0,0,.163.061V641.12Z" transform="translate(-109.301 -443.495)" fill="#858b67" opacity="0.1"/>
    <path id="Path_9876" data-name="Path 9876" d="M402.647,293.594Zm-20.9,100.136Zm-21.806-50.95c.064.217.119.434.18.648h0C360.067,343.215,360.009,343,359.941,342.78Zm42.706-49.2ZM197.72,242.78v1.449h15.156V242.78ZM381.747,393.731Zm-21.806-50.95c.064.217.119.434.18.648h0C360.067,343.215,360.009,343,359.941,342.78Zm42.706-49.2Zm-20.9,100.136Zm-21.806-50.94c.064.217.119.434.18.648h0C360.067,343.215,360.009,343,359.941,342.78Z" transform="translate(-146.347 -180.305)" fill="#858b67" opacity="0.1"/>
    <path id="Path_9877" data-name="Path 9877" d="M367.962,292.849s-1.337-.187-1.337-2.134a30.509,30.509,0,0,0-.957-5.585h0c0-.017-.828-6.334-1.971-7.339s-2.612-6.9-2.612-6.9-.251-3.2-.763-3.888a33.04,33.04,0,0,1-2.226-4.78c-1.021-2.405-5.279-4.071-5.279-4.071s-7.7-4.465-9.88-5.921h0a3.345,3.345,0,0,1-.553-.417c-.38-.5-2.036-.509-2.036-.509a33.342,33.342,0,0,1-.394-3.484,2.644,2.644,0,0,0-.017-.366,11.739,11.739,0,0,0,5.161-6.385c.041-.129.075-.265.112-.394a1.1,1.1,0,0,0,.662-.6,12.445,12.445,0,0,1,.444-1.357,5.111,5.111,0,0,1,1.255-1.1,4.75,4.75,0,0,0,1.306-3.864c-.034-1.137-.217-2.283-.146-3.413l.02-.285c.02-.17.044-.339.075-.5.166-.841.529-1.635.733-2.47a3.178,3.178,0,0,0-.251-2.494c-.7-1.055-2.144-1.266-3.417-1.374-1.442-.122-2.731.037-3.654-1.16a13.022,13.022,0,0,0-1.452-1.754c-.19-.176-2.036-1.3-2.036-1.377a8.248,8.248,0,0,0-5.751-.441c-.957.278-1.859.733-2.83.96-2.093.5-4.5-.041-6.28,1.157a7.381,7.381,0,0,0-2.141,2.809q-.679,1.3-1.377,2.6a16.815,16.815,0,0,0-1.829,4.441,7.049,7.049,0,0,0-.122,1.038h0v.553a1.822,1.822,0,0,0,.02.339c.02.105.017.139.027.21s.027.231.048.339.061.3.1.448c.017.064.041.126.061.187.034.115.075.227.119.339.024.058.048.119.075.176a3.168,3.168,0,0,0,.173.339c.027.048.048.092.075.136a4.51,4.51,0,0,0,.312.455c.726.906,1.795,1.483,2.585,2.331v.38A11.613,11.613,0,0,0,327.3,247.2c0,.129.017.261.024.39a19.409,19.409,0,0,1-.037,3.023,1.425,1.425,0,0,0-1.126-.5,1.625,1.625,0,0,0-.434.037l-.03-.024h0v.03c-.746.183-1.666.96-2.545,3.169,0,0-2.674,3.013-4.709,2.887s-7.189,3.135-7.189,3.135-5.028,3.264-6.107,6.589a46.433,46.433,0,0,1-2.165,5.524l-6.216,12.808h0l-1.147,10.162a47.147,47.147,0,0,1,.509,5.208c-.126.689,2.609,6.9,2.609,6.9s9.035,15.875,12.727,16.689l.265-.187a2.164,2.164,0,0,0,.5.187l.76-.536a8.284,8.284,0,0,1-.058,1.791c-.509,1.568.19,11.8,1.079,13.8s.573,28.3.573,28.3l-.125,2.321a.984.984,0,0,0,.031.2l-.031.55.092.048a6.534,6.534,0,0,1-.092,2.209,24.563,24.563,0,0,0-.448,3.895s-2.541,16.245-1.337,19.509,2.229,6.84,2.229,6.84,1.272,4.071.061,4.767-4.655,1.863-3.946,3.559c.645,1.567,3.091,5.768,3.454,6.382l-.031.322-.5,5.4a6.784,6.784,0,0,0,.573,2.063,3.555,3.555,0,0,0,3.627,2.266c.339-.024.733-.064,1.113-.115a48.089,48.089,0,0,0,8.245-2.144,3.361,3.361,0,0,1-.645-.533h0a1.863,1.863,0,0,1-.567-1.357c.054-.984-1.788-5.673-2.246-6.826-.071-.166-.109-.261-.109-.261s4.2-4.39,3.5-8.282c0,0-4.648-2.714-3.118-4.2a47.4,47.4,0,0,0,4.265-5.768s.126-16,0-18.386a19.781,19.781,0,0,1,.234-4.964c.051-.248.112-.489.176-.726a44.294,44.294,0,0,0,6.392.485c.78,0,1.574,0,2.375-.047q0,.339.031.733c.176,3.963.506,10.911.774,13.493.38,3.7,2.48,13.676,2.48,13.676s-4.007,2.572.7,8.91a8.588,8.588,0,0,1-.312,2.629h0a28.766,28.766,0,0,0-.8,3.311,5.839,5.839,0,0,0,.041,3.03c.763,1.5,5.344,1.377,5.344,1.377h0l.112-.02a6.565,6.565,0,0,1,4.848,1.462c1.741,1.4,8.346.784,11.922.339,1.4-.176,2.338-.339,2.338-.339a1.357,1.357,0,0,0,.048-.489h0c-.037-.879-.726-2.806-5.395-4.526,0,0-4.39-2.952-4.329-5.524h-.6a4.786,4.786,0,0,1,.607,0s-1.72-6.277-1.018-6.786-1.4-7.464-1.4-7.464-1.2-11.671-1.269-12.489a7.126,7.126,0,0,1,.316-2.07l-.316-6.4s-.061-2.127,0-2.819a14.1,14.1,0,0,0-.146-1.795c-.03-.237-.061-.485-.1-.729,1.646-.417,2.714-.8,2.714-.8l-.19-22.274c1.4-2.714,1.656-8.669,1.649-12.893,0-2.714-.122-4.723-.122-4.723l1.91-3.118s.441-3.732-.258-4.55a.783.783,0,0,1,.085-1.069,3.555,3.555,0,0,1,.417-.285s-.02-.031-.044-.075a3.372,3.372,0,0,1,.424-.3s-.679-1.052-.071-1.5c.57.387,1.079.679,1.466.916-.027.248-.054.39-.054.39l.163-.339.6.339s2.992-5.961,2.928-6.84,2.036-4.58,2.036-4.58a4.583,4.583,0,0,1,1.4-2.758c1.147-.814.889-6.714.889-6.714a14.464,14.464,0,0,1,1.082-4.329C369.421,294.542,367.962,292.849,367.962,292.849ZM310.7,290.233l.058,1.422-.584-.94Z" transform="translate(-211.032 -164.038)" fill="url(#linear-gradient)"/>
    <path id="Path_9878" data-name="Path 9878" d="M471.419,496.343l-.733,3.121s-5.87-3-6.928-6.8,1.771-5.252,1.771-5.252L471,489.727Z" transform="translate(-321.967 -341.936)" fill="#fff"/>
    <path id="Path_9879" data-name="Path 9879" d="M471.419,496.343l-.733,3.121s-5.87-3-6.928-6.8,1.771-5.252,1.771-5.252L471,489.727Z" transform="translate(-321.967 -341.936)" opacity="0.1"/>
    <path id="Path_9880" data-name="Path 9880" d="M363.85,802.78a42.186,42.186,0,0,1-9.161,2.246,3.486,3.486,0,0,1-3.559-2.253,6.823,6.823,0,0,1-.56-2.053l.485-5.377.258-2.864,7.929-2.059,1.123,3.433.105.261c.451,1.147,2.26,5.812,2.205,6.786a1.853,1.853,0,0,0,.556,1.34A3.227,3.227,0,0,0,363.85,802.78Z" transform="translate(-247.338 -542.14)" fill="#fff"/>
    <path id="Path_9881" data-name="Path 9881" d="M451.544,799.352a1.358,1.358,0,0,1-.047.485s-11.61,1.937-13.985,0a6.29,6.29,0,0,0-4.886-1.432s-4.492.122-5.242-1.357a5.89,5.89,0,0,1-.037-3.013,28.7,28.7,0,0,1,.787-3.294l.18-.142,1.069-.858,12.513-.37h.1c-.061,2.558,4.248,5.493,4.248,5.493C450.815,796.559,451.49,798.476,451.544,799.352Z" transform="translate(-297.952 -541.446)" fill="#fff"/>
    <path id="Path_9882" data-name="Path 9882" d="M451.548,808.437a1.384,1.384,0,0,1-.051.485s-11.607,1.937-13.982,0a6.29,6.29,0,0,0-4.882-1.432s-4.5.122-5.242-1.357a5.884,5.884,0,0,1-.041-3.013c1.73.173,4.462.6,5.534,1.632,1.622,1.564,4.37,3.125,6.056,3.247C440.26,808.084,448.155,808.335,451.548,808.437Z" transform="translate(-297.956 -550.531)" opacity="0.1"/>
    <path id="Path_9883" data-name="Path 9883" d="M364.946,825.832a42.177,42.177,0,0,1-9.161,2.246,3.476,3.476,0,0,1-3.556-2.256c1.381.465,3.3.953,4.305.506,1.194-.529,5.429-.872,7.8-1.018A3.343,3.343,0,0,0,364.946,825.832Z" transform="translate(-248.435 -565.192)" opacity="0.1"/>
    <path id="Path_9884" data-name="Path 9884" d="M395.873,313.357c-4.479-1.74-10.24-7.491-8.8-10.178a6.013,6.013,0,0,0,.56-2.158,19.7,19.7,0,0,0,.041-3.053,41.818,41.818,0,0,0-.6-4.967s13.982.316,13.168,2.375a7.7,7.7,0,0,0-.21,2.826c.064,1.174.234,2.5.411,3.624.244,1.54.489,2.714.489,2.714s-.855,1.2-1.357,1.262S402.3,315.837,395.873,313.357Z" transform="translate(-271.307 -213.486)" fill="#cf6f80"/>
    <path id="Path_9885" data-name="Path 9885" d="M361.385,794.115l-.105.115c-4.18-5.055-9.235,1.245-9.235,1.245l-.075-.132.258-2.864,7.929-2.059,1.123,3.433Z" transform="translate(-248.263 -542.14)" opacity="0.1"/>
    <path id="Path_9886" data-name="Path 9886" d="M443.872,789.7s-3.054-.065-4.682,1.374-9.5.312-9.161,0a1.115,1.115,0,0,0,.176-.516l1.069-.858,12.513-.37C443.835,789.557,443.872,789.7,443.872,789.7Z" transform="translate(-299.831 -541.42)" opacity="0.1"/>
    <path id="Path_9887" data-name="Path 9887" d="M359.861,660.361a9.443,9.443,0,0,0-.516,1.741,19.921,19.921,0,0,0-.234,4.94c.126,2.375,0,18.291,0,18.291a48.7,48.7,0,0,1-4.18,5.741c-1.5,1.5,3.053,4.183,3.053,4.183.679,3.868-3.434,8.238-3.434,8.238-4.18-5.055-9.235,1.249-9.235,1.249s-2.748-4.75-3.434-6.446,2.684-2.87,3.868-3.559-.058-4.75-.058-4.75-1-3.559-2.188-6.806,1.31-19.41,1.31-19.41a25.051,25.051,0,0,1,.438-3.871,6.473,6.473,0,0,0,.092-2.2c-.02-.248-.044-.455-.061-.594s-.031-.2-.031-.2l.048-.081,1.7-3.162S360.676,658.369,359.861,660.361Z" transform="translate(-241.538 -451.781)" fill="#858b67"/>
    <path id="Path_9888" data-name="Path 9888" d="M436.731,706.149s-3.054-.064-4.682,1.357-9.5.312-9.161,0,.312-2.623.312-2.623c-4.618-6.3-.679-8.862-.679-8.862s-2.063-9.924-2.436-13.605c-.261-2.572-.584-9.483-.757-13.429-.075-1.7-.119-2.864-.119-2.864l3.773-.76.485-.1,9.1-1.825s.251,1.7.421,3.084a14.414,14.414,0,0,1,.142,1.788c-.061.679,0,2.8,0,2.8l.309,6.368a7.234,7.234,0,0,0-.309,2.06c.061.811,1.245,12.421,1.245,12.421s2.059,6.928,1.357,7.427S436.731,706.149,436.731,706.149Z" transform="translate(-292.69 -458.242)" fill="#858b67"/>
    <path id="Path_9889" data-name="Path 9889" d="M400.678,295.375a7.7,7.7,0,0,0-.21,2.826,11.62,11.62,0,0,1-12.357-.231,41.814,41.814,0,0,0-.6-4.971S401.492,293.309,400.678,295.375Z" transform="translate(-271.745 -213.486)" opacity="0.1"/>
    <path id="Path_9890" data-name="Path 9890" d="M397.044,255.29a11.493,11.493,0,0,1-.57,3.6,11.61,11.61,0,0,1-22.644-3.322v-.278a11.609,11.609,0,1,1,23.219,0Z" transform="translate(-262.706 -180.9)" fill="#cf6f80"/>
    <path id="Path_9891" data-name="Path 9891" d="M395.873,328.976c-4.479-1.741-10.24-7.491-8.8-10.179a6.012,6.012,0,0,0,.56-2.158l6.131,5.038,3.793,3.111,2.884-7.342c.244,1.54.489,2.714.489,2.714s-.855,1.2-1.357,1.262S402.3,331.456,395.873,328.976Z" transform="translate(-271.307 -229.106)" opacity="0.1"/>
    <path id="Path_9892" data-name="Path 9892" d="M356.3,291.563l-5.12,86.008-6.677.438-17.29-49.871,2.836-59.208.6-12.509,7.688,6.314,3.8,3.111,2.969-7.556,5.52,4.811Z" transform="translate(-215.876 -169.425)" fill="#858b67"/>
    <path id="Path_9893" data-name="Path 9893" d="M366.606,660.414a9.441,9.441,0,0,0-.516,1.74,49.2,49.2,0,0,1-14-4.373l-.092-.047.031-.546.017-.285,1.7-3.162S367.42,658.422,366.606,660.414Z" transform="translate(-248.283 -451.833)" opacity="0.1"/>
    <path id="Path_9894" data-name="Path 9894" d="M423.021,672.356a34.351,34.351,0,0,1-3.752.427c-.075-1.7-.119-2.864-.119-2.864l3.773-.76Z" transform="translate(-292.65 -462.022)" opacity="0.1"/>
    <path id="Path_9895" data-name="Path 9895" d="M441.22,666.574a26.333,26.333,0,0,1-9.473.892l-.047-2.151,9.1-1.825S441.051,665.17,441.22,666.574Z" transform="translate(-300.942 -458.275)" opacity="0.1"/>
    <path id="Path_9896" data-name="Path 9896" d="M345.991,437.609c-13.911,2.375-26.651-4.434-26.651-4.434l.122-2.307s.316-26.155-.56-28.16-1.557-12.174-1.062-13.734-1.808-24.964-1.808-24.964l-.373-9.5L302,348.975l6.107-12.73a45.931,45.931,0,0,0,2.124-5.5c1.062-3.3,5.992-6.552,5.992-6.552s5.055-3.244,7.054-3.121,4.618-2.87,4.618-2.87c1.934-4.93,3.685-2.7,3.685-2.7a4.406,4.406,0,0,1-.095.729c-.679,5.412,10.972,22.511,11.139,22.813h0l1.109,27.027,1.123,34.2Z" transform="translate(-215.247 -228.025)" opacity="0.1"/>
    <path id="Path_9897" data-name="Path 9897" d="M344.872,437.57c-13.911,2.375-26.654-4.434-26.654-4.434l.126-2.307s.316-26.155-.563-28.16-1.557-12.173-1.059-13.734-1.808-24.964-1.808-24.964l-.377-9.5-13.666-5.554,6.107-12.73a46.656,46.656,0,0,0,2.124-5.5c1.059-3.3,5.992-6.552,5.992-6.552s5.055-3.244,7.05-3.121,4.618-2.87,4.618-2.87c1.937-4.93,4.071-2.7,4.071-2.7,0,.234-.2.339-.095.729,1.493,5.249,10.6,22.511,10.765,22.813h0l1.123,27.027,1.123,34.2Z" transform="translate(-214.5 -227.985)" fill="#fff"/>
    <path id="Path_9898" data-name="Path 9898" d="M394.555,341.291c-1.5-.624-9.422-9.673-9.422-9.673v-2.059c-.288-.679-2-.265-3.393.21l.6-12.509.679.563C384.5,323.068,394.382,340.989,394.555,341.291Z" transform="translate(-267.933 -229.515)" opacity="0.1"/>
    <path id="Path_9899" data-name="Path 9899" d="M395.658,339.081c-1.5-.624-9.425-9.673-9.425-9.673v-2.059c-.288-.679-2-.265-3.393.21l.6-12.509.679.563C385.609,320.858,395.492,338.783,395.658,339.081Z" transform="translate(-268.659 -228.055)" fill="#fff"/>
    <path id="Path_9900" data-name="Path 9900" d="M351.623,516.948c.187,0,9.673-1,9.673-1s5.744,11.295,5.367,14.043-1.058,5.181-3.369,4.75-12.435.339-12.435.339Z" transform="translate(-247.53 -360.793)" opacity="0.1"/>
    <path id="Path_9901" data-name="Path 9901" d="M350.513,514.737c.187,0,9.673-1,9.673-1s5.741,11.3,5.367,14.043-1.062,5.181-3.369,4.75-12.435.339-12.435.339Z" transform="translate(-246.796 -359.333)" fill="#fff"/>
    <path id="Path_9902" data-name="Path 9902" d="M362.968,501.05s8.706,4.679,8.893,6.107-4.431-.624-5.429-.872a12.416,12.416,0,0,0-2-.312l-6.653.18Z" transform="translate(-252.102 -350.948)" fill="#cf6f80"/>
    <circle id="Ellipse_59" data-name="Ellipse 59" cx="0.916" cy="0.916" r="0.916" transform="translate(123.277 110.528)" opacity="0.1"/>
    <circle id="Ellipse_60" data-name="Ellipse 60" cx="0.916" cy="0.916" r="0.916" transform="translate(123.277 110.154)" fill="#3f3d56"/>
    <circle id="Ellipse_61" data-name="Ellipse 61" cx="0.916" cy="0.916" r="0.916" transform="translate(124.963 150.183)" opacity="0.1"/>
    <circle id="Ellipse_62" data-name="Ellipse 62" cx="0.916" cy="0.916" r="0.916" transform="translate(124.963 149.806)" fill="#3f3d56"/>
    <circle id="Ellipse_63" data-name="Ellipse 63" cx="0.916" cy="0.916" r="0.916" transform="translate(124.189 130.355)" opacity="0.1"/>
    <circle id="Ellipse_64" data-name="Ellipse 64" cx="0.916" cy="0.916" r="0.916" transform="translate(124.189 129.982)" fill="#3f3d56"/>
    <path id="Path_9903" data-name="Path 9903" d="M443.993,385.406s.624.936,0,1.374.061,1.5.061,1.5-1.557.913-.872,1.734.251,4.529.251,4.529l-1.873,3.1s.112,2,.119,4.7c0,4.214-.248,10.138-1.618,12.839l.19,22.159s-6.558,2.4-12.048,1.666l-.814-35.557s1.187-20.164,1.625-24.031a40.264,40.264,0,0,0,.312-6.056,67.675,67.675,0,0,0-.814-8.862s-.679-12.17-.746-15.539c-.031-1.612.054-6.314.149-10.786.105-4.889.224-9.5.224-9.5l-1.238-9.8s1.238-.125,1.612.373a3.574,3.574,0,0,0,.543.417h0c2.138,1.445,9.69,5.89,9.69,5.89s4.18,1.663,5.181,4.044a35.241,35.241,0,0,0,2.182,4.75c.485.679.75,3.868.75,3.868s1.439,5.87,2.562,6.864,1.944,7.318,1.944,7.318l-9.924,7.8s-.872,12.981-1.059,13.483S443.993,385.406,443.993,385.406Z" transform="translate(-297.771 -230.571)" fill="#fff"/>
    <path id="Path_9904" data-name="Path 9904" d="M444.323,385.2s.621.936,0,1.374.058,1.5.058,1.5-1.547.923-.869,1.744.251,4.529.251,4.529l-1.873,3.1s.112,2,.122,4.7c0,4.214-.248,10.138-1.618,12.838l.187,22.159s-6.568,2.4-12.051,1.666l-.811-35.557s1.187-20.164,1.625-24.031a39.892,39.892,0,0,0,.309-6.056,68.083,68.083,0,0,0-.811-8.862s-.679-12.17-.75-15.539c-.03-1.612.058-6.314.149-10.786.105-4.889.224-9.5.224-9.5l-1.635-9.931s1.635,0,2.012.505a3.216,3.216,0,0,0,.543.417h0c2.137,1.445,9.693,5.89,9.693,5.89s4.177,1.663,5.177,4.044a34.687,34.687,0,0,0,2.185,4.75c.489.679.746,3.868.746,3.868s1.439,5.87,2.562,6.864,1.934,7.3,1.934,7.3l-9.924,7.8s-.872,12.981-1.062,13.483S444.323,385.2,444.323,385.2Z" transform="translate(-297.724 -230.361)" fill="#fff"/>
    <path id="Path_9905" data-name="Path 9905" d="M433.172,332.8l.9,2.612-4.716,4.75c.105-4.886.224-9.5.224-9.5l-1.635-9.931s1.635,0,2.012.505a3.1,3.1,0,0,0,.543.414h0l4.01,11.57Z" transform="translate(-298.458 -231.808)" opacity="0.1"/>
    <path id="Path_9906" data-name="Path 9906" d="M432.062,330.588l.9,2.612-4.716,4.75c.105-4.889.224-9.5.224-9.5l-1.639-9.931s1.639,0,2.012.506a3.4,3.4,0,0,0,.543.417h0l4.014,11.566Z" transform="translate(-297.724 -230.348)" fill="#fff"/>
    <path id="Path_9907" data-name="Path 9907" d="M397.044,255.29a11.492,11.492,0,0,1-.57,3.6.485.485,0,0,1-.366-.092,14.977,14.977,0,0,0-3.44-8.36A8.784,8.784,0,0,0,390.8,248.5a3.651,3.651,0,0,0-2.531-.716c-1.018.139-1.917.831-2.945.919-1.357.112-2.572-.828-3.919-.875a3.851,3.851,0,0,0-2.88,1.337,7.9,7.9,0,0,0-1.544,2.864,16.755,16.755,0,0,0-.862,4.94c-.017.95-.109,2.141-.991,2.487a5.069,5.069,0,0,0-1.279-3.871l-.02-.02v-.278a11.609,11.609,0,1,1,23.219,0Z" transform="translate(-262.706 -180.9)" opacity="0.1"/>
    <path id="Path_9908" data-name="Path 9908" d="M383.339,222.089a7.994,7.994,0,0,0-5.639-.441c-.94.278-1.825.729-2.779.957-2.036.492-4.411-.041-6.158,1.15a7.365,7.365,0,0,0-2.1,2.792l-1.357,2.585a16.775,16.775,0,0,0-1.795,4.411,5.631,5.631,0,0,0,.865,4.553c.719.913,1.781,1.486,2.562,2.344a5.089,5.089,0,0,1,1.276,3.868c.886-.339.97-1.534.991-2.484a16.751,16.751,0,0,1,.862-4.94,7.875,7.875,0,0,1,1.544-2.864,3.858,3.858,0,0,1,2.881-1.337c1.357.047,2.575.984,3.919.872,1.018-.085,1.92-.78,2.945-.916a3.637,3.637,0,0,1,2.531.716,8.693,8.693,0,0,1,1.863,1.934,14.938,14.938,0,0,1,3.444,8.36c.383.282.936-.085,1.126-.519a12.4,12.4,0,0,1,.438-1.357,5.006,5.006,0,0,1,1.228-1.092,4.8,4.8,0,0,0,1.283-3.844,19.148,19.148,0,0,1-.048-4.18c.159-.841.519-1.629.716-2.46a3.216,3.216,0,0,0-.244-2.48c-.679-1.052-2.107-1.259-3.352-1.357-1.415-.122-2.68.034-3.583-1.157a12.994,12.994,0,0,0-1.425-1.744C385.154,223.284,383.339,222.164,383.339,222.089Z" transform="translate(-255.801 -166.132)" fill="#512e4e"/>
    <path id="Path_9909" data-name="Path 9909" d="M304.428,421.685l-3.545-6.555-1.123,10.114a46.883,46.883,0,0,1,.5,5.181c-.126.689,2.558,6.864,2.558,6.864s8.865,15.79,12.486,16.6l12.231-8.74-3.244-4.119s-1.123-.438-1.4,0c0,0-6.022-10.362-6.647-11.112a3.743,3.743,0,0,1-.5-2.246s-.936-1-.624-1.934-1.808-4.183-1.808-4.183l1.934-1.808Z" transform="translate(-213.767 -294.18)" opacity="0.1"/>
    <path id="Path_9910" data-name="Path 9910" d="M299.609,412.93l-.936.746L297.55,423.79a46.893,46.893,0,0,1,.5,5.181c-.126.689,2.562,6.864,2.562,6.864s8.862,15.79,12.482,16.6l12.235-8.74-3.247-4.119s-1.123-.438-1.4,0c0,0-6.022-10.362-6.647-11.112a3.731,3.731,0,0,1-.5-2.246s-.936-1-.624-1.934-1.812-4.183-1.812-4.183l1.934-1.808Z" transform="translate(-212.307 -292.726)" fill="#fff"/>
    <path id="Path_9911" data-name="Path 9911" d="M461.106,517.943c.679.824.251,4.526.251,4.526l-1.873,3.1s.112,2,.119,4.7l-3.149.984a1.869,1.869,0,0,1-2.426-1.842l.543-17.51,7.345,2.809c-.624.434.061,1.5.061,1.5S460.42,517.118,461.106,517.943Z" transform="translate(-315.694 -358.117)" opacity="0.1"/>
    <path id="Path_9912" data-name="Path 9912" d="M462.209,516.839c.679.824.251,4.529.251,4.529l-1.873,3.1s.112,2,.122,4.7l-3.206,1a1.832,1.832,0,0,1-2.375-1.8l.546-17.565,7.349,2.809c-.628.434.058,1.5.058,1.5S461.531,516.018,462.209,516.839Z" transform="translate(-316.421 -357.39)" fill="#fff"/>
    <path id="Path_9913" data-name="Path 9913" d="M471.726,498.68s-.5,3.186-1.747,3.373-1.808,5.154-3.053,4.977-.421-4.618-.377-5.479-1.357-4.431-.309-5.242,4.367,0,4.367,0Z" transform="translate(-323.506 -347.577)" fill="#cf6f80"/>
    <path id="Path_9914" data-name="Path 9914" d="M471.888,422.44l2.355-4.75a30.836,30.836,0,0,1,.936,5.554c0,1.934,1.31,2.124,1.31,2.124s1.435,1.7.679,2.931a14.229,14.229,0,0,0-1.062,4.309s.248,5.866-.875,6.677a4.544,4.544,0,0,0-1.357,2.748s-2.063,3.681-2,4.557-2.87,6.8-2.87,6.8,1.435-7.366-6.928-10.548c0,0-.064-2.5.56-3.186s1.6-1,.987-4.462a40.465,40.465,0,0,1-.176-8.435,53.116,53.116,0,0,1,1.873-6.016Z" transform="translate(-321.011 -295.871)" opacity="0.1"/>
    <path id="Path_9915" data-name="Path 9915" d="M474.288,415.69l2.056.679a30.737,30.737,0,0,1,.94,5.554c0,1.934,1.31,2.124,1.31,2.124s1.435,1.7.679,2.931a14.19,14.19,0,0,0-1.058,4.309s.248,5.866-.875,6.677a4.607,4.607,0,0,0-1.374,2.748s-2.059,3.681-1.995,4.557-2.874,6.8-2.874,6.8,1.439-7.366-6.928-10.548c0,0-.061-2.5.563-3.186s1.6-1,.987-4.462a40.46,40.46,0,0,1-.176-8.435,53.121,53.121,0,0,1,1.873-6.016Z" transform="translate(-322.392 -294.55)" fill="#fff"/>
    <path id="Path_9916" data-name="Path 9916" d="M360.15,776.4s3.278-2.059,5.429-.563S360.15,776.4,360.15,776.4Z" transform="translate(-253.668 -532.146)" opacity="0.1"/>
    <path id="Path_9917" data-name="Path 9917" d="M435.21,759.754a6.635,6.635,0,0,1,5.337,2.25C442.983,764.626,435.21,759.754,435.21,759.754Z" transform="translate(-303.261 -521.867)" opacity="0.1"/>
    <g id="Group_1009" data-name="Group 1009" transform="translate(107.58 62.651)" opacity="0.1">
      <path id="Path_9918" data-name="Path 9918" d="M401.443,260.5a5.036,5.036,0,0,0-1.232,1.1,12.428,12.428,0,0,0-.434,1.357c-.19.441-.743.8-1.126.523a15,15,0,0,0-3.444-8.363,8.694,8.694,0,0,0-1.863-1.934,3.647,3.647,0,0,0-2.534-.716c-1.018.139-1.914.831-2.942.916-1.357.115-2.575-.824-3.922-.872a3.841,3.841,0,0,0-2.877,1.34,7.858,7.858,0,0,0-1.544,2.86,16.773,16.773,0,0,0-.862,4.94c-.02.947-.109,2.127-.984,2.48a4.646,4.646,0,0,1,0,.753c.882-.339.97-1.534.991-2.484a16.752,16.752,0,0,1,.862-4.94,7.875,7.875,0,0,1,1.544-2.864,3.851,3.851,0,0,1,2.877-1.337c1.357.048,2.579.984,3.922.872,1.018-.085,1.92-.78,2.942-.916a3.647,3.647,0,0,1,2.534.716,8.694,8.694,0,0,1,1.863,1.934,14.962,14.962,0,0,1,3.444,8.36c.383.282.936-.085,1.126-.519a13.147,13.147,0,0,1,.434-1.357,5.021,5.021,0,0,1,1.232-1.093,4.8,4.8,0,0,0,1.282-3.844v-.129A4.454,4.454,0,0,1,401.443,260.5Z" transform="translate(-372.83 -249.341)"/>
      <path id="Path_9919" data-name="Path 9919" d="M366.952,265.5c-.78-.858-1.846-1.432-2.562-2.341a4.967,4.967,0,0,1-.987-2.779,5.225,5.225,0,0,0,.987,3.525c.716.913,1.781,1.486,2.562,2.345a5.089,5.089,0,0,1,1.279,3.026,5.089,5.089,0,0,0-1.279-3.776Z" transform="translate(-363.385 -254.585)"/>
      <path id="Path_9920" data-name="Path 9920" d="M451.848,243.972c-.2.831-.556,1.622-.719,2.46a7.834,7.834,0,0,0-.105,1.7,6.586,6.586,0,0,1,.105-.964c.163-.841.519-1.629.719-2.46a4.173,4.173,0,0,0,.112-1.4A4.711,4.711,0,0,1,451.848,243.972Z" transform="translate(-421.283 -243.3)"/>
    </g>
    <ellipse id="Ellipse_65" data-name="Ellipse 65" cx="33.06" cy="5.31" rx="33.06" ry="5.31" transform="translate(12.29 247.432)" fill="#858b67" opacity="0.1"/>
    <rect id="Rectangle_1088" data-name="Rectangle 1088" width="2.127" height="47.897" transform="translate(44.288 151.024)" fill="#535461"/>
    <path id="Path_9921" data-name="Path 9921" d="M166.306,638.18l-.132,2.158-.19,3.054-.078,1.269-.187,3.054-.081,1.269-.19,3.054L163.3,686.667a5.87,5.87,0,0,1-5.856,5.5H146.3a5.866,5.866,0,0,1-5.853-5.5l-2.134-34.654-.19-3.054-.078-1.269-.19-3.054-.078-1.269-.19-3.054-.136-2.158a3.053,3.053,0,0,1,3.054-3.227h22.8a3.033,3.033,0,0,1,3,3.25Z" transform="translate(-106.523 -439.405)" fill="#3f3d56"/>
    <path id="Path_9922" data-name="Path 9922" d="M119.182,592.24l-.19,3.043H90.77l-.19-3.043Z" transform="translate(-59.531 -391.307)" fill="#9d9cb5"/>
    <path id="Path_9923" data-name="Path 9923" d="M119.436,604.95,119.249,608H91.56l-.19-3.047Z" transform="translate(-60.053 -399.705)" fill="#9d9cb5"/>
    <path id="Path_9924" data-name="Path 9924" d="M119.689,617.68l-.187,3.043H92.35l-.19-3.043Z" transform="translate(-60.575 -408.116)" fill="#9d9cb5"/>
    <path id="Path_9925" data-name="Path 9925" d="M75.062,538.233C87.45,547.2,92.62,561.216,92.62,561.216S77.692,560.7,65.3,551.74,47.75,528.76,47.75,528.76,62.672,529.269,75.062,538.233Z" transform="translate(-47.26 -369.257)" fill="#858b67"/>
    <path id="Path_9926" data-name="Path 9926" d="M47.72,528.76s15.5,8.6,20.469,15.722S92.6,561.216,92.6,561.216" transform="translate(-47.24 -369.257)" fill="none" stroke="#535461" stroke-width="2"/>
    <path id="Path_9927" data-name="Path 9927" d="M122.867,493.417a30.123,30.123,0,0,1,9.561,12.506A27.306,27.306,0,0,1,108,488.26,30.041,30.041,0,0,1,122.867,493.417Z" transform="translate(-87.068 -342.498)" fill="#858b67"/>
    <path id="Path_9928" data-name="Path 9928" d="M108,488.26s8.435,4.682,11.139,8.557,13.29,9.106,13.29,9.106" transform="translate(-87.068 -342.498)" fill="none" stroke="#535461" stroke-width="2"/>
    <path id="Path_9929" data-name="Path 9929" d="M190.575,517.376c-7.746,8.513-9.385,19.638-9.385,19.638s10.922-2.68,18.661-11.2,9.385-19.638,9.385-19.638S198.32,508.864,190.575,517.376Z" transform="translate(-135.426 -354.338)" fill="#858b67"/>
    <path id="Path_9930" data-name="Path 9930" d="M209.242,506.19s-10.09,8.726-12.655,14.738-15.4,16.092-15.4,16.092" transform="translate(-135.426 -354.345)" fill="none" stroke="#535461" stroke-width="2"/>
    <path id="Path_9931" data-name="Path 9931" d="M898.619,354.164s-5.6-27.869-3.457-31.336c0,0,.078-3.223-.051-7.332v-.472a10.439,10.439,0,0,0,1.177.679,9.527,9.527,0,0,0,6.412.828l-1.7-1.89a3.132,3.132,0,0,1-.919-1.537,3.221,3.221,0,0,1,.366-1.663c1.612-4.071,1.7-9.191-1.408-12.3-2.623-2.612-3.26-5.985-6.107-8.37-2.08-1.747-3.223-4.309-4.3-6.786a38.161,38.161,0,0,1-2.355-6.423c-.407-1.734-.57-3.529-1.13-5.222a6.646,6.646,0,0,0-3.247-4.1,12.254,12.254,0,0,1-1.764-.777,7.617,7.617,0,0,1-1.625-1.91c-2.568-3.393-11.169-1.394-15.24-.017a8.574,8.574,0,0,0-3.013,1.669l.037-.061c.031-.051.068-.1.1-.153a5.353,5.353,0,0,0-1.14,1.272,30.487,30.487,0,0,0-1.337,3.054c-.6,1.2-3.919,4.567-2.49,5.921a1.207,1.207,0,0,0,.339.217,2.935,2.935,0,0,0,1.7.17l-.061.146a9.921,9.921,0,0,0-.736,3.763,10.183,10.183,0,0,0,10.274,10.094,10.371,10.371,0,0,0,3.145-.485c.024.129.044.258.068.387a1.189,1.189,0,0,0,.024.153h0l-.18.251a.343.343,0,0,0-.03-.044l-5.327,7.444c-.814.573-5.5,3.966-5.768,6.511-.278,2.786-.556,6.046-.556,6.046l-.037.7a2.1,2.1,0,0,1-1.7.458c-1.663-.271-1.663,6.107-1.663,6.107s-1.106,1.018-1.866.136-2.768,2.107-2.768,2.107l-12.587.543h0l-.288.017-.679-2.1a.886.886,0,0,0-1.109-.567,1.016,1.016,0,0,0-.153.064l-.048.027-.088.061-.044.041a.683.683,0,0,0-.068.071l-.041.047-.02.02h0a.855.855,0,0,0-.122.76l.584,1.8c-2.429.489-4.913,1.866-2.887,5.659l-10.267-1.9,3.322,2.789,17.147,3.539c-.227.407-.078,1,.631,1.829,3.054,3.586,8.618,4.56,10.857,4.811a19.272,19.272,0,0,0,2.2,3.732l-.193,3.573s-5.669,27.231-6.708,28.612a16.137,16.137,0,0,0,1.435-1.89c-1.645,5.595-3.946,13.252-4.55,14.4-.97,1.832-1.869,9.245-.763,9.72a9.309,9.309,0,0,0,2.694-.031v.614l-.061,23.271s.278,14.274-.485,15.634a13.3,13.3,0,0,0-.967,4.214s-3.054,5.629-5.473,7.892a.361.361,0,0,1-.054.047l-.075-.529s-2.908,3.671-9.34,3.464c0,0-3.871,2.517,1.869,2.653s13.073-.2,13.073-.2,5.12-7.8,9.408-6.786v5.914h1.313v-6.009a5.384,5.384,0,0,0,2.338-3.539,4.3,4.3,0,0,0-1.534-3.98,2.545,2.545,0,0,1-.838-1.859l-.047.041a3.578,3.578,0,0,0-.044-.366c-.377-3.054-.848-9.354.818-14.016,2.283-6.392,2.975-15.295,1.313-20.595a47.321,47.321,0,0,1-1.32-5.16c-.041-.221-.078-.431-.112-.628a26.745,26.745,0,0,1,3.369.679c3.851,1.062,12.275,1.259,19.468,1.2.017.2.037.4.061.611a22.223,22.223,0,0,0,.8,4.248c.9,2.714,1.316,14.681,1.316,14.681s1.164,9.839.529,13.843c-.339,2.226-.679,4.462-.872,6.708v.044s-1.907,5.429-3.3,8.377c-.034.075-.071.149-.105.221a4.409,4.409,0,0,0-1.089.241s-1.87,3.732-3.732,4.35-1.245,2.65,2.972,1.9,10.586-1.357,10.586-1.357l.275-3.807,1.3-1.622-.339,3.8,1.381-.271-.183-4.618,2.121-2.653s2.562-2.28-1.245-6.765v.1c-.041-.064-.078-.132-.122-.2v-.02c-.631-.977-1.133-2.8-.214-6.032,1.663-5.842,2.629-11.145,2.629-11.145s3.712-14.206-.75-20.927h.2a11.3,11.3,0,0,1-.96-2.986q-.034-.183-.061-.377a24.482,24.482,0,0,0,9.185-2.076C901.526,393.243,899.935,359.532,898.619,354.164Zm-41.912-23.512v.068l-.679.034Zm-2.328.322a.751.751,0,0,0-.305.146,3.014,3.014,0,0,0-.533,1.394l-1.059-.237s-.743-.159-1.812-.339l-.505-.509C851.557,331.314,853,331.144,854.379,330.974Z" transform="translate(-559.13 -194.122)" fill="url(#linear-gradient-2)"/>
    <path id="Path_9932" data-name="Path 9932" d="M971.724,742.209l-.4,4.808,1.354-.271-.2-5.215Z" transform="translate(-641.45 -489.945)" fill="#1d2366"/>
    <path id="Path_9933" data-name="Path 9933" d="M892.773,678.831c-1.632,4.648-1.171,10.922-.8,13.968.136,1.126.261,1.812.261,1.812s-2.439,5.557-2.643,5.768-7.179,4.468-7.179,4.468l-4.876,2.846s-4.947-2.168-2.575-2.914a3.6,3.6,0,0,0,1.279-.872c2.375-2.256,5.357-7.865,5.357-7.865a13.525,13.525,0,0,1,.95-4.2c.747-1.354.475-15.58.475-15.58l.058-23.19V650.05l9.279.068a20.981,20.981,0,0,0,.4,3.054,46.649,46.649,0,0,0,1.293,5.144C895.684,663.6,895.005,672.463,892.773,678.831Z" transform="translate(-593.384 -449.395)" fill="#ffb0b1"/>
    <path id="Path_9934" data-name="Path 9934" d="M892.23,777.875s-2.439,5.557-2.643,5.768-7.179,4.468-7.179,4.468l-4.876,2.847s-4.947-2.168-2.575-2.914a3.6,3.6,0,0,0,1.279-.872l.21,1.483,1.625-.068,13.911-12.516C892.1,777.19,892.23,777.875,892.23,777.875Z" transform="translate(-593.384 -532.659)" opacity="0.1"/>
    <path id="Path_9935" data-name="Path 9935" d="M875.277,777l-13.989,12.6-1.625.068-.339-2.375s-2.843,3.658-9.161,3.454c0,0-3.793,2.507,1.829,2.643s12.8-.2,12.8-.2,5.015-7.8,9.212-6.786v5.893h1.289v-5.948a5.356,5.356,0,0,0,2.287-3.529,4.323,4.323,0,0,0-1.5-3.963A2.554,2.554,0,0,1,875.277,777Z" transform="translate(-576.601 -533.273)" fill="#1d2366"/>
    <path id="Path_9936" data-name="Path 9936" d="M999.014,685.586c-.9,3.223-.411,5.038.207,6.012v.02a11.11,11.11,0,0,1,1.622,3.959l.054.305-6.365,9.279-3.454,1.357s-5.554-1.9-4.54-2.439a5.2,5.2,0,0,0,1.106-1.812c1.357-2.935,3.23-8.35,3.23-8.35v-.044c.2-2.236.509-4.465.855-6.684.621-3.993-.519-13.8-.519-13.8s-.407-11.919-1.289-14.63a22.384,22.384,0,0,1-.79-4.221c-.183-1.7-.224-3.094-.224-3.094s3.657-5.089,10.362.407a7.373,7.373,0,0,1,1.4,1.52c4.631,6.589.9,21.1.9,21.1S1000.64,679.761,999.014,685.586Z" transform="translate(-667.452 -448.903)" fill="#ffb0b1"/>
    <path id="Path_9937" data-name="Path 9937" d="M1000.927,778.087l-6.365,9.279-3.454,1.357s-5.554-1.9-4.54-2.44a5.2,5.2,0,0,0,1.106-1.812,4.39,4.39,0,0,1,3.569,2.219l2.979-.475s3.929-7.722,4.811-8.194.136-3.525.136-3.525v-.777c.024.027.044.058.071.085v.02a11.111,11.111,0,0,1,1.622,3.96Z" transform="translate(-667.471 -531.106)" opacity="0.1"/>
    <path id="Path_9938" data-name="Path 9938" d="M982.531,787.274s-1.7-3.115-4.947-1.964c0,0-1.829,3.732-3.657,4.336s-1.218,2.64,2.915,1.9,10.362-1.357,10.362-1.357l.271-3.8,4.2-5.351s2.5-2.27-1.221-6.738v.777s.746,3.054-.136,3.525-4.8,8.2-4.8,8.2Z" transform="translate(-658.555 -531.489)" fill="#1d2366"/>
    <path id="Path_9939" data-name="Path 9939" d="M909.43,650.1a21,21,0,0,0,.4,3.054,42.563,42.563,0,0,0-9.69-.1V650.03Z" transform="translate(-610.448 -449.382)" opacity="0.1"/>
    <path id="Path_9940" data-name="Path 9940" d="M1005.926,654.216s-5.429.265-11.9.319c-.183-1.7-.224-3.094-.224-3.094s3.657-5.089,10.362.407a7.379,7.379,0,0,1,1.4,1.52A8.259,8.259,0,0,0,1005.926,654.216Z" transform="translate(-672.331 -448.897)" opacity="0.1"/>
    <path id="Path_9941" data-name="Path 9941" d="M937.945,537.871s-23.777,1.15-31.024-.882-14.43-.271-15.512-.743-.2-7.858.747-9.687,6.161-20.323,6.161-20.323l5.015-26.145,5.283-1.456.373-.105,9.2-2.538,6.745-1.863s13.412,52.362,12.262,56.223a9.887,9.887,0,0,0-.2,4.543A11.332,11.332,0,0,0,937.945,537.871Z" transform="translate(-604.35 -333.162)" fill="#1d2366"/>
    <path id="Path_9942" data-name="Path 9942" d="M871.133,439s-4.75,5.089-1.154,7.926,5.961.271,5.961.271Z" transform="translate(-589.631 -309.951)" fill="#c7daf5"/>
    <path id="Path_9943" data-name="Path 9943" d="M871.133,439s-4.75,5.089-1.154,7.926,5.961.271,5.961.271Z" transform="translate(-589.631 -309.951)" opacity="0.1"/>
    <path id="Path_9944" data-name="Path 9944" d="M969.321,322.315s-.556.529-1.394,1.31c-1.194,1.116-2.962,2.748-4.53,4.116-2.171,1.89-3.963,3.277-3.322,2.093s.519-3.247.2-5.177c-.024-.129-.044-.258-.068-.383a35.562,35.562,0,0,0-1.048-4.194,72.536,72.536,0,0,1,5.449-6.321c.723-.679,1.228-.957,1.259-.485a15.765,15.765,0,0,0,1.1,3.522c.017.048.034.092.054.139.394,1.018.838,2.063,1.228,2.965C968.846,321.283,969.321,322.315,969.321,322.315Z" transform="translate(-649.444 -226.726)" fill="#ffb0b1"/>
    <path id="Path_9945" data-name="Path 9945" d="M967.021,316.941a10.07,10.07,0,0,1-6.745,7.722,35.3,35.3,0,0,0-1.116-4.577s6.606-8.533,6.708-6.806A16.142,16.142,0,0,0,967.021,316.941Z" transform="translate(-649.444 -226.734)" opacity="0.1"/>
    <path id="Path_9946" data-name="Path 9946" d="M935.773,351.655l.855-1.2s.567,3.454,2.65,1.931,2.185,11.464,2.185,11.464l-2.236,33.43-16.157-.967.458-16.153,1.829-8.143,4.523-11.838,2.691-3.912Z" transform="translate(-625.598 -251.445)" opacity="0.1"/>
    <path id="Path_9947" data-name="Path 9947" d="M941.482,364.422l-2.036,30.227-.214,3.2-9.008-.54-.339-.02-6.786-.407.458-16.157,1.829-8.143,4.523-11.838,2.69-3.912,3.2-4.624.855-1.2s.567,3.454,2.65,1.931l.044-.03h0C941.388,351.621,941.482,364.422,941.482,364.422Z" transform="translate(-625.618 -251.815)" fill="#1d2366"/>
    <path id="Path_9948" data-name="Path 9948" d="M889.737,406.26a2.472,2.472,0,0,1-2.439,1.422c-1.629-.275-1.625,6.107-1.625,6.107s-1.082,1.018-1.829.136-2.714,2.1-2.714,2.1l-12.33.543s5.486,2.507,4.411,10.094c0,0,18.627-1.154,19.237-2.914S889.737,406.26,889.737,406.26Z" transform="translate(-589.741 -288.319)" fill="#fff"/>
    <path id="Path_9949" data-name="Path 9949" d="M889.737,406.26a2.472,2.472,0,0,1-2.439,1.422c-1.629-.275-1.625,6.107-1.625,6.107s-1.082,1.018-1.829.136-2.714,2.1-2.714,2.1l-12.33.543s5.486,2.507,4.411,10.094c0,0,18.627-1.154,19.237-2.914S889.737,406.26,889.737,406.26Z" transform="translate(-589.741 -288.319)" opacity="0.03"/>
    <path id="Path_9950" data-name="Path 9950" d="M777.66,389.76l3.25,2.775,26.756,5.622-3.318-3.386Z" transform="translate(-513.496 -257.525)" fill="#fff"/>
    <path id="Path_9951" data-name="Path 9951" d="M922.94,350.972a68.463,68.463,0,0,0-2.779,7.186c-.886,2.528-1.625,4.75-1.625,4.75s-1.727,11.244-2.609,13.276-.4,9.958-.4,9.958l-3.288,19.573s-1.489,10.094-3.79,16.123a29.36,29.36,0,0,1-4.876,8.8c1.018-1.378,6.565-28.5,6.565-28.5l1.832-34.207s.268-3.25.539-6.029,5.768-6.572,5.768-6.572l5.3-7.535C924.107,348.513,923.751,349.754,922.94,350.972Z" transform="translate(-612.714 -249.694)" fill="#fff"/>
    <path id="Path_9952" data-name="Path 9952" d="M895.988,472.108s-7.8-.339-11.583-4.879,8.737-1.812,8.737-1.812l3.254.746Z" transform="translate(-599.582 -326.868)" fill="#ffb0b1"/>
    <path id="Path_9953" data-name="Path 9953" d="M971.675,452.592a9.885,9.885,0,0,0-.2,4.543,64.671,64.671,0,0,1-17.619-1.7,39.578,39.578,0,0,1-6.165,3.861l-2.436-30.2c-1.557-4.071-2.168-25.4-2.168-25.4s.139-1.116.339-2.789a.321.321,0,0,1,.017-.126c.607-4.672,1.812-13.442,2.4-14.626.814-1.629-2.5-5.961-2.5-5.961l1.51-12.876.183-1.554c3.183-1.422,5.622-5.961,5.622-5.961l1.873-3.281h0c2.036-1.306,2.141,11.495,2.141,11.495l-2.036,30.227,6.745-1.863S972.825,448.731,971.675,452.592Z" transform="translate(-638.826 -255.398)" opacity="0.1"/>
    <path id="Path_9954" data-name="Path 9954" d="M981.2,438.931c-9.279,4.607-26.145.339-26.145.339a39.579,39.579,0,0,1-6.165,3.861l-2.439-30.2c-1.554-4.071-2.165-25.4-2.165-25.4s1.961-15.916,2.775-17.541a2.614,2.614,0,0,0-.159-1.941,24.554,24.554,0,0,1-1.486-11.363l.651-5.534.18-1.551c3.186-1.425,5.625-5.965,5.625-5.965l1.7-2.972,3.121-5.476,1.479-2.592.251.227,1.917,1.737,2.036,1.7c2.657,2.239,7.247,6.182,9.615,8.594,2.083,2.124,2.741,10.385,2.932,16.6.126,4.1.051,7.3.051,7.3-2.1,3.457,3.393,31.214,3.393,31.214C979.647,405.342,981.2,438.931,981.2,438.931Z" transform="translate(-639.619 -239.651)" fill="#fff"/>
    <path id="Path_9955" data-name="Path 9955" d="M944.986,364.008s-6.368,12.123-5.629,16.73,2.843,9.822,1.829,11.04a3.749,3.749,0,0,1-2.982,1.489,9.8,9.8,0,0,0-3.732,2.168c0,.2-2.507.2-4.75,1.154a29.576,29.576,0,0,1-5.554,1.489s-6.446-.2-7.047.407-1.218,4.265.068,7.179,2.714,5.089,3.793,5.486,7.926-1.9,13.48-2.439,11.583-4.943,11.583-4.943,6.64-2.375,7.8-6.368-1.422-25.942-1.422-25.942S950.472,361.229,944.986,364.008Z" transform="translate(-621.213 -260.086)" opacity="0.03"/>
    <path id="Path_9956" data-name="Path 9956" d="M942.6,361.01s-6.368,12.126-5.622,16.73,2.843,9.822,1.825,11.044a3.732,3.732,0,0,1-2.979,1.489,9.8,9.8,0,0,0-3.732,2.168c0,.2-2.507.2-4.75,1.15a29.864,29.864,0,0,1-5.554,1.489s-6.446-.2-7.044.407-1.222,4.268.068,7.179,2.714,5.089,3.793,5.486,7.926-1.9,13.48-2.436,11.583-4.947,11.583-4.947,6.636-2.375,7.787-6.365-1.422-25.945-1.422-25.945S948.091,358.235,942.6,361.01Z" transform="translate(-619.646 -258.106)" opacity="0.03"/>
    <path id="Path_9957" data-name="Path 9957" d="M944.409,362.217s-6.368,12.126-5.622,16.73,2.843,9.822,1.829,11.04a3.732,3.732,0,0,1-2.982,1.493,9.849,9.849,0,0,0-3.732,2.165c0,.2-2.5.2-4.75,1.154a29.645,29.645,0,0,1-5.554,1.489s-6.446-.2-7.047.407-1.218,4.268.068,7.179,2.714,5.089,3.793,5.486,7.926-1.9,13.48-2.44,11.583-4.943,11.583-4.943,6.64-2.375,7.8-6.368-1.4-25.942-1.4-25.942S949.892,359.456,944.409,362.217Z" transform="translate(-620.836 -258.906)" fill="#fff"/>
    <path id="Path_9958" data-name="Path 9958" d="M992.4,458.41s-5.089-1.018-3.318.679,1.761,3.182,3.929,3.115S992.4,458.41,992.4,458.41Z" transform="translate(-668.966 -322.576)" opacity="0.1"/>
    <path id="Path_9959" data-name="Path 9959" d="M1023.77,566.58s-2.3,1.557,2.1,5.147S1023.77,566.58,1023.77,566.58Z" transform="translate(-691.735 -394.245)" opacity="0.1"/>
    <path id="Path_9960" data-name="Path 9960" d="M1011.808,604.31c0,.2-.814,7.464,2.233,9.279S1011.808,604.31,1011.808,604.31Z" transform="translate(-684.164 -419.174)" opacity="0.1"/>
    <path id="Path_9961" data-name="Path 9961" d="M858.159,436.59c-2.456.085-7.763.835-5.011,5.968,2.433,4.543,6.521,1.506,8.821-.8a8.669,8.669,0,0,0-3.81-5.171Z" transform="translate(-578.89 -308.359)" fill="#ffb0b1"/>
    <path id="Path_9962" data-name="Path 9962" d="M881.39,451Z" transform="translate(-598.06 -317.88)" fill="#ffb0b1"/>
    <path id="Path_9963" data-name="Path 9963" d="M880.74,451.505l.1-.105Z" transform="translate(-597.63 -318.144)" fill="#ffb0b1"/>
    <path id="Path_9964" data-name="Path 9964" d="M965.846,336.858c-2.606,1.781-4.791,3.284-5.218,3.6-1.167.865-3.393,5.944-4.828,8.536-1.143,2.087-4.859,2.623-6.26,2.755l.18-1.551c3.186-1.425,5.625-5.965,5.625-5.965l6.3-11.04,2.168,1.971Z" transform="translate(-643.088 -240.041)" opacity="0.1"/>
    <path id="Path_9965" data-name="Path 9965" d="M965.846,336.258c-2.606,1.781-4.791,3.284-5.218,3.6-1.167.862-3.393,5.941-4.828,8.533-1.143,2.087-4.859,2.623-6.26,2.755l.18-1.551c3.186-1.425,5.625-5.965,5.625-5.965l6.3-11.04,2.168,1.964S964.625,335.226,965.846,336.258Z" transform="translate(-643.088 -239.644)" fill="#dce7ff"/>
    <path id="Path_9966" data-name="Path 9966" d="M943.624,298.325a10.063,10.063,0,1,1-8.555-9.948A10.046,10.046,0,0,1,943.624,298.325Z" transform="translate(-625.88 -210.356)" fill="#ffb0b1"/>
    <path id="Path_9967" data-name="Path 9967" d="M962.608,332.168a8.945,8.945,0,0,1-3.247-3.488c-.567-1.12-.943-2.412-1.91-3.206a8.484,8.484,0,0,0-3.121-1.2c-3.569-1.055-6.562-4.312-6.674-8.031-.054-1.751.492-3.5.244-5.232a5.8,5.8,0,0,0-1.133-2.7,9.284,9.284,0,0,0-.981-1.055c-.475-.448-.974-.882-1.408-1.357a5.272,5.272,0,0,1-.713-.967,4.655,4.655,0,0,1-.39-.9c-.679-2.076-.061-4.54-.807-6.64l-.041-.115a2.16,2.16,0,0,0-1.652-1.551c-.8-.058-1.479.6-2.239.9-1.591.617-3.308-.434-4.635-1.506s-2.823-2.3-4.509-2.059a14.565,14.565,0,0,0-3.026,1.313,4.242,4.242,0,0,1-.716.207,10.06,10.06,0,0,1,19.4,3.749,9.955,9.955,0,0,1-.22,2.1c.017.047.034.092.054.139.394,1.018.838,2.063,1.228,2.965l1.917,1.737,2.036,1.7c2.657,2.239,7.247,6.182,9.615,8.594C961.76,317.691,962.411,325.949,962.608,332.168Z" transform="translate(-627.303 -210.356)" opacity="0.1"/>
    <path id="Path_9968" data-name="Path 9968" d="M921.987,273.136c.485-.987.726-2.093,1.306-3.03a7.219,7.219,0,0,1,3.865-2.752c3.987-1.374,12.411-3.369,14.928,0a7.347,7.347,0,0,0,1.591,1.9,11.82,11.82,0,0,0,1.727.777,6.6,6.6,0,0,1,3.176,4.071c.546,1.676.709,3.474,1.109,5.2a38.245,38.245,0,0,0,2.307,6.4c1.055,2.463,2.175,5.018,4.211,6.759,2.779,2.375,3.393,5.737,5.971,8.343,3.053,3.094,2.955,8.2,1.381,12.255a3.365,3.365,0,0,0-.36,1.656,3.246,3.246,0,0,0,.9,1.534l1.669,1.883a9.387,9.387,0,0,1-10.257-4.73c-.567-1.12-.943-2.409-1.913-3.206a8.461,8.461,0,0,0-3.118-1.2c-3.569-1.059-6.562-4.319-6.674-8.038-.054-1.747.492-3.495.244-5.225a5.766,5.766,0,0,0-1.137-2.714c-.933-1.218-2.341-2.036-3.1-3.393-1.286-2.27-.309-5.218-1.235-7.654a2.165,2.165,0,0,0-1.652-1.551c-.8-.058-1.479.6-2.243.9-1.588.617-3.3-.431-4.631-1.506s-2.823-2.3-4.513-2.056c-1.116.156-1.995.916-3.023,1.313-.76.292-2.3.553-2.965-.088C918.146,277.692,921.4,274.344,921.987,273.136Z" transform="translate(-623.043 -195.319)" fill="#591d4b"/>
    <path id="Path_9969" data-name="Path 9969" d="M956.312,318.713c-.57-1.12-.943-2.409-1.913-3.2a8.462,8.462,0,0,0-3.121-1.2c-3.566-1.055-6.558-4.316-6.674-8.034-.054-1.747.492-3.5.248-5.228a5.8,5.8,0,0,0-1.137-2.7c-.936-1.218-2.344-2.036-3.1-3.393-1.286-2.266-.309-5.215-1.238-7.654a2.171,2.171,0,0,0-1.649-1.551c-.794-.061-1.483.607-2.243.9-1.588.618-3.308-.434-4.631-1.506s-2.826-2.3-4.513-2.059a14.455,14.455,0,0,0-3.023,1.313c-.76.292-2.3.556-2.969-.085-1.4-1.357,1.856-4.7,2.44-5.9a32.455,32.455,0,0,1,1.31-3.03c.031-.051.065-.1.1-.153a5.386,5.386,0,0,0-1.116,1.269,32.977,32.977,0,0,0-1.306,3.03c-.587,1.2-3.841,4.553-2.439,5.9.679.645,2.205.38,2.965.088a13.963,13.963,0,0,1,3.023-1.313c1.7-.241,3.189.984,4.512,2.056s3.053,2.124,4.635,1.506c.76-.3,1.425-.96,2.239-.9a2.161,2.161,0,0,1,1.652,1.55c.926,2.436-.051,5.384,1.235,7.654.76,1.333,2.168,2.168,3.1,3.393a5.767,5.767,0,0,1,1.137,2.714c.248,1.73-.3,3.478-.244,5.225.112,3.732,3.1,6.979,6.674,8.038a8.507,8.507,0,0,1,3.118,1.2,8.975,8.975,0,0,1,1.914,3.206,9.386,9.386,0,0,0,10.256,4.73l-.787-.889A9.488,9.488,0,0,1,956.312,318.713Z" transform="translate(-622.901 -201.745)" opacity="0.1"/>
    <path id="Path_9970" data-name="Path 9970" d="M950.955,351.506a68.428,68.428,0,0,0-2.779,7.186c-.994-.387-1.9-2.853-1.9-2.853l5.3-7.539C952.123,349.046,951.766,350.285,950.955,351.506Z" transform="translate(-640.934 -250.024)" opacity="0.1"/>
    <path id="Path_9971" data-name="Path 9971" d="M951.555,350.913a68.442,68.442,0,0,0-2.779,7.186c-.994-.383-1.9-2.853-1.9-2.853l5.3-7.535C952.723,348.453,952.366,349.695,951.555,350.913Z" transform="translate(-641.33 -249.634)" fill="#dce7ff"/>
    <path id="Path_9972" data-name="Path 9972" d="M864.038,439.068,861.1,429.8a.865.865,0,0,1,.563-1.089h0a.869.869,0,0,1,1.086.563l2.938,9.256-.292,1.937Z" transform="translate(-584.626 -303.128)" fill="#be8b87"/>
    <path id="Path_9973" data-name="Path 9973" d="M861.65,429.014h0a.868.868,0,0,1,1.089.563l2.938,9.256-.221,1.452.214.224.292-1.937-2.955-9.256a.868.868,0,0,0-1.086-.563h0a.868.868,0,0,0-.451.339,1.177,1.177,0,0,1,.18-.078Z" transform="translate(-584.898 -303.154)" fill="#fff" opacity="0.1"/>
    <path id="Path_9974" data-name="Path 9974" d="M822.6,399.663l1.649-.522-.241,1.588-.051.349-.482-.5Z" transform="translate(-543.188 -263.723)" fill="#efc8c4"/>
    <path id="Path_9975" data-name="Path 9975" d="M872.42,461.783a.341.341,0,0,1,.105-.088.149.149,0,0,1,.159,0,.418.418,0,0,1,.058.092.292.292,0,0,0,.21.139l-.051.339Z" transform="translate(-592.133 -324.931)" fill="#727a9c"/>
    <path id="Path_9976" data-name="Path 9976" d="M861.13,441.7s5.893-.034,4.506,2.473a5.3,5.3,0,0,1-3.556,2.809Z" transform="translate(-584.674 -311.735)" fill="#ffb0b1"/>
    <path id="Path_9977" data-name="Path 9977" d="M602.12,110.05h-.254a29.02,29.02,0,0,0-24.228,13.263,29.02,29.02,0,0,0-24.228-13.263h-.255a28.839,28.839,0,0,0-28.564,28.822c0,9.435,4.133,22.824,12.19,33.84,15.353,20.991,40.857,39.357,40.857,39.357s25.5-18.362,40.853-39.357c8.061-11.017,12.19-24.4,12.19-33.84A28.839,28.839,0,0,0,602.12,110.05Zm-3.641,64.277a5.717,5.717,0,0,1-5.317-3.671H587.11a1.913,1.913,0,0,1-1.8-1.3l-1.859-5.6-5.883,20.557a1.9,1.9,0,0,1-1.825,1.374h-.119a1.88,1.88,0,0,1-1.764-1.574l-6.063-36.466-4.431,21.578a1.89,1.89,0,0,1-1.836,1.435H553a1.9,1.9,0,1,1,0-3.79h7.033l6.277-29.012a1.9,1.9,0,0,1,3.732.156l6.192,37.2,5.272-18.393a1.866,1.866,0,0,1,1.774-1.357h.037a1.893,1.893,0,0,1,1.8,1.3l3.362,10.114h4.608a5.686,5.686,0,1,1,5.4,7.464Z" transform="translate(-362.316 -92.608)" fill="#858b67"/>
  </g>
</svg>
