<svg xmlns="http://www.w3.org/2000/svg" width="45.623" height="47.81" viewBox="0 0 45.623 47.81">
  <path id="Union_14" data-name="Union 14" d="M22534.775-8443.011a.681.681,0,0,1-.146-.957.687.687,0,0,1,.957-.153,13.25,13.25,0,0,0,17.232-1.37l1.371-1.375a10.36,10.36,0,0,0,3.063-7.383v-12.127a.684.684,0,0,1,.686-.686.684.684,0,0,1,.684.686v12.127a11.758,11.758,0,0,1-3.459,8.356l-1.375,1.37a14.662,14.662,0,0,1-10.389,4.331A14.648,14.648,0,0,1,22534.775-8443.011Zm-11.588.231a12.349,12.349,0,0,1-9.172-9.494.681.681,0,0,1,.531-.81.69.69,0,0,1,.811.532,10.978,10.978,0,0,0,8.152,8.441.681.681,0,0,1,.5.826.686.686,0,0,1-.668.521A.769.769,0,0,1,22523.188-8442.779Zm9.035-2.524-9.873-9.874a4.079,4.079,0,0,1,0-5.758,4.056,4.056,0,0,1,2.631-1.183l-1.3-1.3a4.051,4.051,0,0,1-1.189-2.876,4.066,4.066,0,0,1,1.189-2.882,4.083,4.083,0,0,1,2.791-1.188,4.078,4.078,0,0,1,.6-4.993,4.079,4.079,0,0,1,5.758,0l.26.26a4.064,4.064,0,0,1,1.184-2.633,4.048,4.048,0,0,1,2.883-1.188,4.033,4.033,0,0,1,2.875,1.188l9.41,9.41v-2.384a4.6,4.6,0,0,1,4.592-4.592,4.6,4.6,0,0,1,4.59,4.592v1.064a.688.688,0,0,1-.689.685.682.682,0,0,1-.68-.685v-1.064a3.227,3.227,0,0,0-3.221-3.222,3.224,3.224,0,0,0-3.223,3.222v4.042a.676.676,0,0,1-.424.629.67.67,0,0,1-.742-.147l-10.582-10.581a2.705,2.705,0,0,0-3.82,0,2.682,2.682,0,0,0-.787,1.913,2.682,2.682,0,0,0,.727,1.846.727.727,0,0,1,.066.057l6.561,6.562a.685.685,0,0,1,0,.969.683.683,0,0,1-.486.2.683.683,0,0,1-.486-.2l-6.512-6.511c-.018-.015-.033-.029-.051-.046l-2.412-2.417a2.705,2.705,0,0,0-3.82,0,2.7,2.7,0,0,0,0,3.815l1.35,1.35c.018.016.037.031.055.049l7.654,7.654a.688.688,0,0,1,0,.969.69.69,0,0,1-.488.2.663.663,0,0,1-.48-.2l-7.58-7.581a.743.743,0,0,1-.08-.068,2.69,2.69,0,0,0-1.908-.792,2.69,2.69,0,0,0-1.908.792,2.669,2.669,0,0,0-.791,1.908,2.669,2.669,0,0,0,.791,1.908l3.4,3.4c.018.016.037.031.055.049l5.049,5.05a.688.688,0,0,1,0,.969.7.7,0,0,1-.486.2.7.7,0,0,1-.486-.2l-5-5c-.018-.015-.035-.029-.051-.045a2.7,2.7,0,0,0-3.816,0,2.7,2.7,0,0,0,0,3.815l9.875,9.874a.694.694,0,0,1,0,.974.711.711,0,0,1-.488.2A.7.7,0,0,1,22532.223-8445.3Zm-8.578-2.367a6.479,6.479,0,0,1-4.816-4.981.681.681,0,0,1,.531-.81.684.684,0,0,1,.811.532,5.107,5.107,0,0,0,3.793,3.929.688.688,0,0,1,.51.826.689.689,0,0,1-.668.527A.5.5,0,0,1,22523.645-8447.671Zm22.465-5.095a11.043,11.043,0,0,1,.709-10.14.678.678,0,0,1,.939-.232.69.69,0,0,1,.227.945,9.686,9.686,0,0,0-.617,8.883.683.683,0,0,1-.352.9.661.661,0,0,1-.271.057A.692.692,0,0,1,22546.109-8452.766Zm-.65-24.271a5.1,5.1,0,0,0-3.924-3.794.691.691,0,0,1-.537-.81.687.687,0,0,1,.809-.537,6.5,6.5,0,0,1,4.988,4.817.685.685,0,0,1-.5.827.586.586,0,0,1-.164.022A.69.69,0,0,1,22545.459-8477.036Zm4.891-.453a10.977,10.977,0,0,0-8.436-8.152.692.692,0,0,1-.537-.81.688.688,0,0,1,.811-.532,12.348,12.348,0,0,1,9.494,9.171.685.685,0,0,1-.5.827.842.842,0,0,1-.16.017A.69.69,0,0,1,22550.35-8477.489Z" transform="translate(-22513.498 8487.501)" fill="#858b67" stroke="#858b67" stroke-linecap="round" stroke-width="1"/>
</svg>
